<svg  xmlns="http://www.w3.org/2000/svg" width="360" height="220">
  <defs>
    <path id="a" d="M.115.044h190.678v178.468H.115z"></path>
    <path id="c" d="M.467.254h.744v.49H.467z"></path>
    <path id="e" d="M.115.044h190.678v178.468H.115z"></path>
    <path id="g" d="M.467.254h.744v.49H.467z"></path>
  </defs>
  <g fill="none" fill-rule="evenodd" >
    <path d="M227.022 175.575l-.026.044.23-.096v-.026c-.075.033-.138.055-.204.078M258.24 89.613l-.24.117.262-.063-.022-.054zM245.854 60.175c.022 0 .017 0 0 0" fill="#FAF6F0"></path>
    <g transform="translate(73.198 20.7)" style="">
      <mask id="b" fill="#fff">
        <path d="M.115.044h190.678v178.468H.115z" transform="matrix(1, 0, 0, 1, 0, 0)"></path>
      </mask>
      <path d="M187.686 90.336c.01-.197.009-.393.007-.59l.264-.02c.066.199.134.399.189.599l-.46.011zm.437 11.895l-.258-.009-.124-.611.466.027-.084.593zm-.2.767l-.177-.028.052-.355.177.026-.052.357zm-2.11 5.802l-.261-.058.277-1.394.263.054-.278 1.398zm.592-24.98l.536-.027.007.117-.536.026-.007-.116zm-4.178 20.76l.031.914-.473-.06.17-.885.272.03zm-.354 2.247l-.255-.026-.099-.585.462.057-.108.554zm-.52-9.617l.052-.55.264.001.144.576-.46-.027zm-.615 11.86l-.174-.041.08-.328.174.04-.08.329zm-1.331-9.793c-.416-.674-.403-1.296-.398-1.923l-.298-.032-.427.995-.786-.593.239-2.591 1.255 1.194.443-.525.925.078c-.37 1.143.091 2.41-.953 3.397zm-.088.964c.286.586.207 1.135.13 1.67-.715-.52-1.095-.988-.756-1.1.393-.132.51-.35.626-.57zm-1.874-1.243l.795-.586c-.003.787-.005.787-.795.586zm2.254 8.158c-.608.233-1.078.401-1.656.601l-.857-.194c-.516-.708-.052-1.48-.955-2.169-.903.375-.653 1.153-1.114 1.698-.328-1.379.517-2.579.194-4.095.096-.076.381-.308.769-.621l.455 1.455.88-.135c.147.114.309.24.47.367l1.152-.44c1.353 1.27.898 2.485.662 3.533zm-3.065 1.227l.39-.676 1.487 1.123-1.877-.447zm-1.456 1.559l-.52-.135.026-.102.52.135-.026.102zm-.584-23.92l.162 1.222-1.09-.585.928-.637zm-.702-1.673l.017.303-.179.008-.016-.303.178-.008zm2.233 10.206c.415.22.429.421.44.621h-.348l-.15-.623.058.002zm.529 5.28l-1.241.375 1.137-1.927c.44.611.038 1.056.104 1.552zm-1.226-9.916c.204-.492.334-1.014.01-1.58l.714-.334.33 1.253c.263-.13.444-.218.647-.317.357.202.726.412 1.184.67l.38-1.128c1.493.508 1.23 1.472 1.91 2.105l.943.022.125 1.331-1.1-1.354c-.15.082-.483.157-.491.247-.072.815-.38 1.667-.04 2.432.326.724-.336 1.202-.457 1.835l-.68-.838.531-.414c-1.48-.222-1.46.484-2.214.875.12-1.452.14-2.798.204-4.14l-.382-.028c-.136.38-.09.842-.45 1.116-.627.475-.274.988-.375 1.476-.089.424-.061.86-.095 1.29-.317-.117-.487-.224-.483-.323.003-.868.055-1.733.095-2.636l-.793-.126c-.028-.477.264-.941.487-1.434zm1.538-3.837c.334.06.682.096.88.124.267.206.414.276.56.348l-.168.105-.366-.246c-.522.423-1.156.71-1.98.952l-.016-1.515c.39.083.733.168 1.09.232zm2.036 1.451l-.536.006v-.106l.535-.007.001.107zm.196-2.6l-1.233.188-.064-1.145 1.297.958zm-7.335.786c.45-.065.684-.099 1.036-.148.08.179.154.341.345.843-.679-.35-.955-.49-1.38-.695zm.658.852l.476-.014.007.797-.28.017-.203-.8zm.142 2.876l-.011-1.691c.664.543.346 1.13.011 1.69zm-1.18 19.983l-.086-.084c-.046.13-.185.179-.327.226l-.14-.137.475-.092.088.085c.044-.13.186-.18.325-.228l.141.137-.475.093zm1.835 10.758l.17 1.034c-.067.027-.278.11-.55.215l.384.874-.794.328c-.428.13.486.57-.056.819-.777.358-.628.482.464 1.608.132-.53.229-1.042.338-1.642.681.783.675.784.709 1.3.018.382.157.816.03 1.14-.39.983-.885 1.92-1.367 2.918l-.786.007-1.61-1.172-.472-1.48 1.527.574c.261-.808-1.17-1.273-1.559-1.951l.125.942-.937-.392.086-.006-.225-.396-.196.017.293.38c-.367.249-.76.514-1.42.963l.732-3.478 1.126-.09c-.021 1.248-.026 1.251 1.496 2.015.07-.01.182.001.203-.034.107-.186.19-.383.285-.584a384.89 384.89 0 00-.988-.836l1.399-.378c-.84-1.441 1.245-1.6 1.593-2.695zm1.664 5.71c.477.434.682.68.955.86.266.176.6.288 1.15.54l-1.384.878-.899-.429c-.121.304-.262.599-.527 1.15l-.382-.799.997-.486c-.036-.39.017-.93.09-1.714zm1.615-3.052l1.68-.27-.757 1.822-.26-.095-.105-.673-.857-.065.3-.719zm2.752-8.705l-.032 1.16-1.044-.322c.326-.254.612-.478 1.076-.838zm1.373-.943l1.174.765c.137-.478.276-.881.426-1.511.793.96 1.327 1.672 2.08 2.66l-1.23 2.789c-.443.96-.948 1.93-1.432 2.903-.723-.627.062-.917.112-1.364.06-.583.366-1.105.543-1.662.154-.502.254-1.024.475-1.501.209-.448-.102-1.152 1.178-1.204l-1.174-.49-.401 1.332-2.302-.143.036 1.028c-1.007.476-.405 1.575-1.244 1.992l-.48-.57c1.06-1.383 1.574-2.917 1.305-4.716l.934-.308zm.315 9.94l-.5-.197.045-.109.5.196-.045.11zm-.58-6.369c.183-.128.292-.168.396-.205l.13.156-.488.095-.037-.046zm-.24.76l.51.169-.04.109-.509-.17.039-.108zm-.377 8.252l-.926-.34c1.097-.41 1.2-1.188.68-2.224l1.19.29-.944 2.274zm-2.058 4.494l-.24-.087.06-.613.434.17-.254.53zm-3.577 7.493l-.314.906-.419-.223.49-.807.243.124zm-1.067 2.114l-.41-.22.309-.502.23.112-.129.61zm-.809-1.798l.061-.1.456.283-.06.1-.457-.283zm-.719-6.112l1.31-2.436.704.264c.044.145.145.296.105.377-.771 1.573-.78 1.578-2.119 1.795zm-1.434-2.81l.31-.577.238.122-.31.579-.238-.125zm-2.385-.118l.6-1.115.643.246c.308.813-.3.933-1.243.87zm3.319 9.014c-.722.833-1.507 1.618-2.26 2.416-.875-.774-.402-1.284-.234-1.858-1.325-.602-1.191.548-2.012.375.138.146.214.293.29.441l-.199-.009-.154-.439.124.006c-.95-.516-.636.394-1.186.378l-.556-.318.39-2.063c-.423-.327-.758-.584-1.087-.837 0-.123-.058-.28.007-.336.592-.5 1.197-.995 1.756-1.511.222.12.372.202.699.377-.11.276-.213.556-.334.826-.101.235-.244.444-.066.87.242-.256.48-.516.72-.807a108.99 108.99 0 002.711-.344c-.72-1.216-1.043-.043-1.792-.482l-.332-1.505 1.622.316-.014.791 1.669.51.182.898 2.18.808c-.283.16-.371.26-.508.278-.885.113-.417 1.404-1.616 1.22zm-.114 3.859l-.226-.122.15-.597.406.23-.33.489zm-2.09-.971l-.15-.446.068.003a.009.009 0 00-.004.003c.136.147.211.296.287.446l-.201-.006zm-1.58 4.41l-.256-.116-.032-1.177 1.025.066-.737 1.226zm-.994-5.327l-.146-.103.19-.277.146.102-.19.278zm-.488 6.38l-.373-.272c.124-.147.235-.304.352-.455l.223.144c-.068.193-.13.393-.202.582zm-1.261-12.969l.245.138-.282.835-.402-.254.439-.719zm-.672-60.357l.872-.747.343 1.659-.234.078-.98-.99zm-.59 60.176c-.21.322-1.39-.005-.638.947-.896-.165-.834.558-1.262.876-1.346-.957-.725-1.473-1.147-2.17 1.578.077.895-1.844 2.805-1.554.21.128.51.312 1.026.625-.259.426-.503.862-.784 1.276zm-.021 2.317l.177-.263.15.099-.179.263-.148-.1zm.366 5.685l-.43-.322.066-.087.431.32-.067.089zm-1.546-3.464c-.931-.826-.94-.81.836-1.228l-.836 1.228zm-.529 9.23l-.136-.116.217-.26.136.116-.217.26zm-1.339-5.418l.357-.801.39.278-.517.684-.23-.16zm.148 4.403l-.204-.174.637-.764.206.171-.64.767zm-.543-14.29l-.451-.29.056-.083.451.29-.056.083zm-1.635 14.371c.029-.547.024-.891.033-1.362.219.11.567.289.79.401-.152.172-.413.515-.823.961zm-.24 2.878l.116.538-1.729.168c.294.543.56 1.039.829 1.533-.587.027-.884-.001-1.23-.026-.28-.831-.154-1.327.11-1.713.252-.396.638-.688.883-1.08l-.47-1.014c-.251.175-.455.395-.701.663.003-.738-.001-.735.618-.671.44-.38.797-.77 1.241-1.256.167.416.24.601.317.79l1.009.41c-.105 1.48-.115 1.489-.993 1.658zm-.494 2.221a.945.945 0 01.096-.23c.027-.041.216.049.67.164a21.44 21.44 0 01-.766.066zm-.029.103c.303.03.134.095-.043.162a2.86 2.86 0 00.043-.162zm.143 1.137l-.382-.376.08-.08.383.377-.08.08zm-3.296-10.451c.186-.285.302-.64.584-.824.161-.104.593.07.918.117.148.963-.864.606-1.502.707zm-.017-4.214l.218.15-.164.503-.367-.278.313-.375zm-1.684 4.744l1.166.654-.13.284-1.036-.938zm.726 8.82c-.426.08-.836.172-1.673.28.523-.46.784-.755 1.09-1.043l.529.515c.026.115.077.243.054.248zm-1.46 3.446l-.194-.191.51-.73.341.332-.657.589zm-.647 1.898l-.116-.136.25-.222.118.135-.252.223zm-1.233-15.48l.939.022c-.407.595-.407.595-.94-.023zm.355 14.928l-1.553-.57c.297-.251.701-.553 1.09-.912l.929 1.08a9.972 9.972 0 01-.466.402zm-2.214-2.463l-.088-.325c.241.017.474.021.75.03l.098-.993 1 .292c.412 1.075-.14 1.284-.624 1.604l-1.136-.608zm1.24-3.879l-.754.85-.324-.327.846-.758.233.235zm-1.46-2.708l2.077-1.169.422.424-.068 1.343c-.4-.104-.944-.369-1.289-.312-.348.06-.506.437-1.01.882l-.131-1.168zm-.44 8.092l-.304-.365.66-.539.191.207-.547.697zm-2.819 7.25c-.143.008-.304-.028-.46-.052-.402-.68-.12-.688.294-.649.256.027.475-.074.708-.13.414.879-.121.805-.542.832zm-.583.372l.017-.461.072.032-.015-.003c.076.183.094.348.11.512l-.184-.08zm-2.02 1.65l-.06-.395c-.311.01-.621.022-1.05.038-.089-.09-.145-.159-.189-.22-.03.052-.06.107-.1.147-.034.036-.196-.096-.608-.328 1.47-1.197 1.45-1.2 2.978-.1l-.97.858zm-3.51-9.952l-.147-1.121 1.093-.803c.249.301.356.448.53.687-.313.562-.88.789-1.475 1.237zm-3.923 10.979l.498-1.282c.442.122.954-.085 1.964.949-.96.168-1.62.226-2.462.333zm-1.223-3.144c.357-.894 1.182-.502 1.983-.217-.478.293-.968.563-1.538.863l-.445-.646zm-.486.418l-.085-.158.278-.149.086.158-.279.149zm-3.93-1.528l-.12-.24c.276-.127.547-.263.812-.409l.122.24c-.265.146-.538.281-.814.409zm-2.5-4.605l-.237-.481.085-.04.238.48-.085.041zm-2.494 13.788l-.94.343c-.052-.376-.16-.691-.106-.835.176-.476.407-.889.687-1.488.44-.155 1.02-.414 1.64-.666l1.084 1.338c-.917.093-1.718.207-2.585.258l.22 1.05zm-2.102-3.163l-.111-.259.708-.469.187.443-.784.285zm-2.195-1.963l.437-1.586c-.877.039-1.52.08-2.29.094-.016.036-.103.23-.218.48l-.31-.71c.977-1.55 2.449-1.247 4.226-.945l-1.065.998 1.29.711c-.582.58-1.307.617-2.07.958zm-6.374 8.714c-.992-.415-1.342 1.38-2.499.667l.353-1.747-.714-.352c.825-1.061 1.997.271 2.883-.434-.009.677-.015 1.12-.023 1.866zm-3.43-7.604l-.114-.524.097-.02.115.524-.097.02zm-7.637 10.373c.435-.657.982-.483 1.538-.167l-1.538.167zm-6.529-5.974c.444-.63.938-.427 1.433-.079l-1.433.079zm-.118 5.5l-.02-.474c.288-.006.578-.028.867-.042l.025.28-.872.236zm-2.705-9.308v-.18l.293-.002v.18l-.293.002zm-.313 5.414l-.63.004.003-.27.627-.003v.269zm-1.536.569l-.015-.265c.177-.06.353-.113.53-.18l.01.46c-.175.004-.35-.01-.525-.015zm-.205-6.183l.293.012-.004.18-.293-.012.004-.18zm-.268 6.256l-.107-.005.015-.536.106.005-.014.536zm-.619-6.113l-.293-.012.008-.179.293.013-.008.178zm-2.035 5.103l1.472-.435c.001.007.041.212.116.579-.552.474-1.068.134-1.588-.144zm-.677.148l-.313-.028.013-.178.312.028-.012.178zm-2.972 2.085l.015-.465.53.05.001.255-.546.16zm-4.035 2.093l-.546-.08.017-.263.578-.115-.049.458zm-3.33-1.476a3.257 3.257 0 01-.147-.266 1.094 1.094 0 01-.34.085c-.047.002-.074-.209-.213-.654.195.183.358.323.505.442-.012-.082.096-.006.203.072a1.696 1.696 0 00-.08.029c.479.368.716.415.98.466-.622.388-.627.388-.908-.174zm-22.23-9.286l-.58-.279.121-.24.579.28-.12.24zm-4.762-1.868a5.85 5.85 0 01-.357-.205c.188-.28.382-.647.438-.642.543.042 1.363-.623 1.623.404l-1.704.443zm91.18-129.253c.682-.13.77.45 1.14.657.377.21 1.11-.043 1.283.446.969-.578.195.794.923.632.523-.11.8.376.967.895l-.854.018.37.87c-.74-.482-1.638-.692-2.662-.694l-.046-.045c.08-1.342.017-1.452-.954-1.821 0 .331-.001.633-.003.92a69.738 69.738 0 00-.644-.59l.48-1.288zm3.962-.944l.418.385-.187.193-.416-.383.185-.195zm1.042 5.577c-.18.099-.365.231-.388.208l-.817-.834.314-.313c.296.299.595.597.891.94zm1.194 1.998l.06.067-.404.352-.06-.067.404-.352zm1.162 1.31l.007.497a4.533 4.533 0 01-.71.332l-.498-.597c.422-.114.818-.207 1.201-.231zm.567-9.996l.418-.087c-.243.191-.358.233-.473.273l.055-.186zm1.171.017l-.23.26-.526-.258c.447-.23.603-.117.756-.002zm.222 11.982l.184-.033-.236.418-.103.018.06-.03c-.017-.103.04-.237.095-.373zm.483-12.584l.498.226-.32.33-.352-.357.174-.2zm.879.634c.912.958 1.663 1.834 2.437 2.69.673.727 1.254 1.53 1.884 2.293.625.766 1.248 1.534 1.855 2.315.665.844 1.61 1.487 2.288 2.337.33.408.786.763.493 1.568-.097.266.494.412.946.744-.482 1.152.848 1.457.845 2.797-.39-.425-.602-.614-.761-.838-.205-.287-.37-.601-.55-.903l-.499-.758c-.194-.295-.443-.557-.568-.891-.115-.306-.095-.688-.14-1.07-.93-.002-.895-.855-1.474-1.178-.55-.316-1.355-.38-2.356-.613-.183-.236-.512-.724-.945-1.25l.604-1.136-1.428-.596c-.093-.595.909-1.708-.235-1.732l-1.003.853-.64-.585 1.103-1.152-.228-.312-1.223.617c.234-.514.418-.919.654-1.434l-1.328.115c.075-.497.174-1.071.269-1.88zm2.38.478l.206.231-.133.12-.207-.231.133-.12zm.637.715l.492.258-.335.315-.342-.382.185-.19zm2.394-2.157l.214.24-.134.119-.215-.24.135-.119zm.574 6.41l-.187.175-.48-.26.345-.312.322.397zm-.23-5.815l.457-.05-.012.038c-.2.116-.355.16-.506.198l.06-.186zm1.549-.955c.42.455.803.946 1.205 1.434l-1.245 1.435c-.955-.117-.695-1.225-1.022-1.911.442-.42.709-.652 1.062-.958zm.373 4.45l.42-.334.067.084-.42.332-.067-.082zm-.905 3.211l-.428.325-.06-.083.427-.324.061.082zm-.163-1.267c.191-.077.394-.191.417-.164.474.595.92 1.214 1.371 1.827l-.35.272c-.472-.637-.934-1.282-1.438-1.935zm.28 2.332l-.06-.083.431-.319.062.083-.432.319zm.532.117l.182.249-.145.105-.182-.248.145-.106zm1.775-.133c.123.01.31-.025.359.039.544.693.962 1.473 1.509 2.163.262.34.69.569 1.107.902-.045.272-.099.657-.175 1.053l-.745.025-2.042-2.076.14-1.247-.89-.331-.414.07.08-.178.454-.013-.05.11c.236-.209.451-.363.667-.517zm.376-6.184l.07.085-.42.335-.069-.084.42-.336zm.41.792l.206.256-.141.11-.205-.256.14-.11zm2.153 4.563l.299.447-.206.167-.46-.337.367-.277zm-1.305 30.998l.902-.45.085-.792.246-.058.74 2.879-.69.238-1.283-1.817zm-2.99-20.923l.387-.247.248.415-.218.15-.418-.318zm-2.985 3.548c-1.022-.537-1.294-1.495-1.49-2.51l1.49 2.51zm.022-10.077l.024-.052c-.582.14-.932.08-1.327.012.168-.163.334-.324.63-.615l.723.617-.05.038zm.724 11.453l-1.234-.32c.125-.168.292-.393.62-.83.202.381.358.672.614 1.15zm-.304-11.42l-.447.024.002-.005c.258-.137.396-.168.528-.193l-.083.174zm-4.096.176l.214-.163.505.686-.215.16-.504-.683zm.073 2.363l-1.671-.438.471-1.194 1.2 1.632zm-2.168-2.51l.14-.11.174.215-.14.11-.174-.215zm.265.612l.058.072-.424.328-.058-.072.424-.328zm-1.188 2.822l.277-.326-.513.013-.357-.475.883-.452c.297.404.53.83 1.303.758.644-.06.861.262 1.091.585.417.578.796 1.183 1.315 1.95l-1.29.127c-.085-.584-.148-1.14-.258-1.739-.614.144-1.202.287-1.81.44-.211-.295-.425-.59-.641-.88zm-1.196-1.563l.613-.113-.328.473c-.093-.12-.19-.24-.285-.36zM77.106 164.994l-.109.525-.096-.019.109-.525.096.019zM87.2 166.95l-.039.535-.099-.009.04-.536.098.01zm1.588-.267l-.01.178-.294-.013.01-.179.294.014zm22.435-3.192l.28-.071.043.173-.28.072-.043-.174zm1.494 7.651c-.578.157-1.165.282-1.753.401.429-.76 1.091-.572 1.753-.4zm12.79-4.865l-.29.122-.07-.166.291-.122.07.166zm13.983-13.77a1.799 1.799 0 01-.168-.512l.174.082.026.445-.032-.015zm1.712 9.656l-.275.183-.097-.15.274-.182.098.15zm1.07-7.736l-.083.061-.321-.43.083-.06.32.429zm2.842 6.632l.185.075-.004.466-.064-.027.007-.002c-.08-.183-.101-.348-.124-.512zm2.563-16.93l-.07.07-.376-.384.07-.067.376.382zm4.912 4.39l.19.19-.454.447-.187-.191.451-.445zm11.37-21.874l-.239.441-.241-.107.067-.536.413.202zm.468-81.195c.779.048 1.035.695 1.27 1.34l-.66.47-1.802-1.23 1.1-1.572c.025.258.05.53.092.992zm.345-7.867c.228.193.452.388.664.592l-.374.295c-.16-.245-.327-.482-.502-.715l.212-.172zm2.043-.186c.176.262.604.517.54.89-.126.72-.162 1.182.792 1.21.29.009.25.647.4 1.125.353.387.643 1.075 1.306 1.383.697.327 1.043.84 1.378 1.392.707 1.168.676 1.198 1.443 1.455l-.012.007c-.056.438-.116.728-.245 1.342l1.238-1.229.66.588.276-.441c.37.71.77 1.405 1.143 2.198l1.695-.035.627 1.32c-.525-.3-.751-.43-1.074-.612l-.66.602-.866.737.977 2.083.906 2.157-.23.102-.599-.492-.448.486c-.404-.234-.927-.402-1.191-.716-.313-.377-.404-.882-.6-1.283l-.99.27-.572-1.21-2.229-.646.275-.679-.563-.069 1.248-1.823c.145.07.397.188.746.354-.02-.249.026-.444-.058-.562-.312-.437-.734-.81-.987-1.274-.233-.429-.273-.963-.455-1.426-.317-.75-1.163-1.164-1.768-1.671l-2.074-1.721c-.721-.597-1.066-1.5-1.573-2.259.497-.499.946-.95 1.544-1.553zm-.549-.789l.067.09-.44.31-.065-.09.438-.31zm5.47 4.568c.598 1.012 1.223 2.018 1.802 3.136l-.844.527c.132-1.594-.736-2.65-2.263-3.613l1.305-.05zm5.97 9.606l-.968-.143-.264-.83.552-.428.858.632-.179.769zm-8.513-5.918l.156-.088.168.283-.156.089-.168-.284zm.952 9.17c-.436-.528-.734-1.131-.82-1.88l.719-.427.892 1.89.79 1.87c-.614-.45-1.164-.915-1.58-1.452zm-1.727 12.099c-.773-.35.042-.976.273-1.517.247.447.897.866-.273 1.517zm.174 15.064l.267-.026.06.569-.267.024-.06-.567zm.132-.875l.03.285-.177.018-.03-.284.177-.019zm-.283-.542c-.056-.472-.087-.947-.166-1.416l.267-.036c.077.47.11.948.166 1.42l-.267.032zm-1.333 22.55l-1.141.107c.18-.911.359-1.795.52-3.054.963.7 1.488 1.1 1.968 1.464-.72.557-1.05-.01-1.587-.224-.063.459-.165.888-.243 1.32l.22.077.562-.799 1.19.586c-.151.78-.292 1.507-.496 2.55-.217-1.239-.287-1.367-.993-2.027zm-1.971 22.22l.418.189-.218.455-.244-.101.044-.544zm.41-41.96l.179-.015.015.274-.178.014-.017-.273zm1.017 38.992c.161.997-.286 1.771-1.047 2.387.175-.426.34-.856.524-1.276.165-.374.349-.74.523-1.11zm-.33-.459l.192-.019.246.38-.065.006.01-.02c-.17-.099-.276-.222-.383-.347zm.515-33.036c.65.505.32 1.048.011 1.565l-.01-1.565zm.258 2.2l.176.468-.46.002.019-.458.265-.012zm.502-7.635c-.009 1.343.755 2.771-1.302 4.037.008-.64-.048-1.218-.074-1.767a537.8 537.8 0 011.193-.648l-1.264-.153-.039-.67c.203-.043.441-.093.844-.176.073-.236.166-.53.28-.888.192.13.36.192.362.265zm.147-22.165l.167-.063.103.282-.168.062-.102-.28zm.019 13.09l.3.418-.45.116-.096-.462.246-.072zm.507-22.225l.481-.238.045.095-.48.237-.046-.094zm.048 8.24l.118.018c-.035-.133.052-.255.14-.378l.191.03-.337.355-.117-.018c.035.133-.053.255-.142.376l-.19-.028.337-.355zm-.758-9.642l.477-.247.05.093-.478.246-.049-.092zm.142 4.358l.53.648-.424.218-.347-.737.24-.129zm-1.223 6.42l.424-.192.168.462-.232.11-.36-.38zm-.817 14.575l-.894-.29 1.244-.234c.105.465-.118 1.055.306 1.326.644.416-.107.903.081 1.326.173.389.574.852-.2 1.323.973.408.106 1.265.826 1.672.75.435.141.956.17 1.458l-1.145-1.24-.89-.005c.117-.92.036-1.84.33-2.765.298-.913-1.104-1.592.172-2.571zm.77 53.781l-1.118-1.259.567-.058.292-1.743.942.422c.262.012.41-.008.559-.03l.107.166-.492-.004-.064-.102c.31 1.077-.23 1.75-.792 2.608zm.625 4.383l-.056.093-.46-.279.057-.092.459.278zm-.063-2.776l.306-.561.234.13-.306.564-.234-.133zm2.094-53.877l-.653.96a216.8 216.8 0 00-.715-.232l.437-1.353c.2.364.32.587.44.808l.491-.183zm2.393 10.088l-.626 1.97-.595-.234-.619.247-.286-.767 1.248-.237-1.27-.314c.375-.6 1.02-.853 2.148-.665zm-.937 10.557l-.01.096-.533-.062.01-.096.533.062zm.67-1.406l-.008.098-.535-.052.01-.098.533.052zm-.166-6.088l-.537-.01.004-.097.537.01-.004.097zm-.2 24.733l-1.326-.118c.063-.353.118-.615.157-.881.83.212.702.572 1.17.999zm.243-4.1l.532.124c-.167.551-.332 1.103-.545 1.813-.56-.91.195-1.303.013-1.936zm.674-9.091c-.512.402-1.017.765-1.694 1.26-.244-.661-.604-1.157-.54-1.581.055-.42.561-.769.869-1.155l1.365 1.476zm1.43-16.25l-1.146-.984.87-.551.275 1.536zm-.375-4.058c.054.53.087.758.103 1.119l-1.35-.06c.458-.375.727-.612 1.247-1.059zm12.302 33.412l.516.146-.034.115-.516-.147.034-.114zm-25.297 34.919l.21.161-.24.552-.351-.298.381-.415zM138.582 29.212l-.074-.057.327-.425.076.057-.329.425zm23.154-.433l-.53-.279.327-.332.378.424-.175.187zm-1.387-1.512l-.757-.55.346-.326.61.677-.199.199zm22.037 32.264l.173.558-.234.103-.37-.484.43-.177zm.171 4.639l.088.337-.172.047-.088-.336.172-.048zm.681 2.283l-.32.092-.446-1.204.45-.122.316 1.234zm2.023-.743l.146.572-.242.087-.346-.514.442-.145zm-13.45-5.44l.214.59-.253.089-.213-.589.253-.09zm3.213 2.387l.032.103-.513.161-.032-.103.513-.161zm.982 1.679l.157.513-.248.094-.346-.462.437-.145zm.972 1.127l.028.105-.517.142-.028-.105.517-.142zm-1.348 6.642l.547-1.362c1.018.482.472.97-.547 1.362zm13.24 11.148l.243.579-.462.058-.033-.595.253-.042zm.97 8.221c.028-.746.06-1.435.047-2.074l.906-.126c-.498-.47-.947-.896-1.611-1.525l.008 1.594-1.517-.49-.14-.805-1.033-.668c.094-.918-.35-1.937 1.05-2.76.986.803 1.974 1.495 1.894 2.585.233-1.61.465-3.205-.153-4.755-.175-.439.34-1.005-.316-1.38l.004.003.423-.287-.176-.1-.354.324.05.03c-.833.114-.503.536-.456.805.09.512-.31.782-1.03 1.186l-.047-.798.05.03.423-.278-.175-.1-.357.315.053.03c-1.095.13-.012.87-.702 1.069-.347-.44-.694-.877-1.093-1.38l-.84.663c.652.388 1.102.773.042 1.204-.25-.423-.614-.725-1.64-.545l.182.961.941-.045c-.171.652-.893.318-1.58.363-.49-1.171-.97-2.343-1.492-3.496l-1.431-.014a99.12 99.12 0 00-.058-.563l-.812.376-.436-.21-.78.32-.083-.796-.968-.099.285-1.504-1.544.185c.036-.03-.072.022-.066.058.151.838.444 1.66.65 2.54.206.879.262 1.821.029 2.86l-.747-1.011.439-.584-1.036-.256c-.238-.412-.61-.966-1.01-1.57-.337.031-.755.072-1.112.106-.865-.596-1.204-1.216-.967-2.038l.979.217.781-.388.688.153.203-.159a41.688 41.688 0 00-1.785-1.284l-.252-1.622.858-.139c.124.287.24.551.374.858.183-.131.381-.227.361-.269-.21-.448.217-1.04-.589-1.372-.235-.096-.045-.531-.005-.815.028-.243.126-.49.21-.807l-1.793-.3.278 1.36c-.333-.043-.563-.042-.566-.076-.053-.514-.584-.884-.414-1.503.163-.587.153-1.305-.76-1.692-.182-.079.277-.576.21-.83-.06-.245-.682-.435-.572-.623.618-1.062-.127-1.842-.405-2.691a.152.152 0 01.011-.006c-.004.001-.011.003-.012.005-.282-.112-.366-.284-.449-.456l.325-.122.344.467c.379-.196.65-.361.91-.523l-.032.033.432.134.136-.138-.485-.082-.022.024.637-.884c-.358-.72-1.009-1.274-.9-1.942.173-.969-.098-1.804-.403-2.622-.326-.812-.684-1.608-.926-2.447-.074-.269-.141-.538.182-.958.654 1.487 1.199 3.021 1.7 4.564.191.572.643.928 1.337 1.217l.204-.645c.446-.019.89-.038 1.41-.062l.78 2.537-.994.53c.656.072 1.204.13 1.792.195l.259.647 1.027-.108c.038.375.278.791.07 1.173-.298.542.69.535.507.999-.13.32-.12.66-.043.96.105.38.365.726.198 1.242l-1.273-1.03-.43.937c-.577-1.123-1.174-2.054-1.722-2.988.066 1.222-.385 2.476-.028 3.644.24.742.562 1.494.082 2.399-.207.407.497.928.886 1.37.275.316.709.573 1.067.86-.83.535.137.773.151 1.165.023.436.183.856.686 1.23a33.645 33.645 0 00-.409-2.764c-.111-.577.293-1.044 1.148-1.845.198.653.332 1.021.416 1.399.092.42.138.847.187 1.167l1.09.918c-.013.025-.026.115-.1.185-1.477 1.336-.207 2.215.61 3.226l1.093-.102-.628-.56c.578-1.01 1.098-2.064.734-3.115l-1.122-3.02c-.368-.33-1.045-.631-1.101-1.022-.154-1.256-1.048-2.363-.35-3.799.147-.323-.448-.684-.58-.86.027-.578.086-.999.051-1.403-.04-.467-.16-.919-.247-1.379l.35-.1.897 2.848.334-.078-.283-2.129 1.047.678c.766-.789.952-1.43.667-2.049-.533-.01-1.065-.022-1.621-.034l.138-1.612c-.324.157-.448.201-.54.266-.116.08-.206.177-.455.396l-.33-1.076c-.83-.44-2.073.077-2.454-.52l-1.024.29-.117-.605c.535.03.94.052 1.346.073l-.205.243.473-.357c-.554-.88-1.665-.22-2.626.04-.6-.395-.305-.988-.289-1.563.016-.498-.705-.838-1.135-1.276l-.575.59-.51-.97c.476.057.682.08.998.119.112-.603.175-1.166.272-1.876.646.16 1.257.306 2.19.56l.343.938-.91-.086.213 1.172c1.085-.122 2.099-.221 1.914.863l-.828.287c-.145-.188-.276-.355-.212-.272-.22.109-.595.293-.969.479l.224.091.923-.274c.369.357.9.387 1.674.122.449-.154.953-.179 1.555-.28l.466-.65c-1.014-.603-1.378-1.725-2.915-2.113-.114-.3-.244-.69-.401-1.07l.22-.093c.201.24.375.492.597.784l1.267-.482c.047-.53-.012-1.064-.862-1.248.139-.2.299-.434.511-.743l1.082.887c.088.618.074 1.241.27 1.784.2.548.016 1.333 1.263 1.36l1.297-.858-.024.715c-.169.343-.227.437-.215.44 1.834.421-.163 2.02.656 2.838l-.581-.078c-.992 1.09-.25 1.89-.094 2.8.195.038.533.034.562.124.228.704.34 1.441.589 2.138.449 1.198.172 2.573 1.307 3.606.182.167-.11.588-.206.982l.9-.253c-.01-.84-.47-1.526-.195-2.664l.94 2.042c-.08.356-.129.567-.175.768l1.733.206c-.08-.4-.25-.795-.22-1.205.036-.524-.445-.789-1.012-1.07a.036.036 0 00.005-.002l-.006.001c-.303-.282-.397-.61-.492-.939l.346-.098.392.92c.243-.123.413-.227.41-.308-.018-.504-.114-.995.236-1.585.099.438.196.877.279 1.318.17.92.334 1.842.466 2.767.006.045-.263.134-.404.201.071.33.124.665.18 1.014l1.057-.184c-.114-.789-.29-1.532-.436-2.282l-.436-2.107c-.148-.764-.648-1.51-.462-2.267.2-.841-.847-1.174-.488-1.97a75.807 75.807 0 00-3.246-.931l.262-2.1 1.514-.062c-.962-1.737-.707-3.836-2.399-5.143-.14-.108-.268-.365-.17-.484.74-.912-.19-1.364-.269-2.042-.01-.09-.19-.137-.318-.221l-.817.379c.315.394.6.75.9 1.129l-2.244.38c-.17-.77-.336-1.509-.453-2.036l1.033-1.334c-.383-.385-.621-.643-1.05-1.039l2.01-.26c-.262-1.083-.205-1.159-.726-1.343-.965-.34-1.35-1.002-1.662-1.867a507.2 507.2 0 01-1.2-.006c-.456-.686-.525-1.492-1.432-1.748.918-1.149-1.9-.668-.626-1.89-.292-.186-.626-.283-.764-.493-.559-.879-1.06-1.791-1.578-2.695-.02-.037.06-.133.1-.221.153-.005.302-.008.347-.009l.74-.835c-.486-.392-.912-.616-1.2-.94-.387-.443-.655-.973-1-1.448-.032-.044-.235.031-.36.051l.02.73-1.047.691-.829-.573-.2.17.572 1.157c-.807-.292-1.18-.848-1.403-1.557l1.166-.197.305-1.182c-.175.045-.34.061-.504.078l.077-.188.466.023a6.323 6.323 0 01-.039.087c.158-.13.305-.232.452-.333-.13-.192-.255-.39-.394-.575l.059-.002.214-.45-.204.008-.137.447.05-.002-1.531.5c.03-.29.063-.579.1-.914l-1.4.481c.5-.945-.55-1.36.218-2.441l.697.27.223-.247c-.206-.237-.411-.475-.56-.649l-.927.426-.557-.07 1.031-1.17-1.397.131.648-.928-.341-.422c-1.02.082-1.646-.303-2.122-.897a26.32 26.32 0 00-1.834-2.071c-.525-.52-.886-1.018-1.144-1.947.804.522 1.254 1.223 2.122 1.555.73.289.972 1.255 1.41 1.971l.618-.675c-1.3-1.207-2.033-2.976-4.039-3.285l-.556.355c-.65-.4-1.174-.83-1.821-1.075-.553-.209-1.018-1.012-2.124.287l.96.224-.595 1.008c.412.417.839.85 1.266 1.285.521.513.793 1.429 1.53 1.519 1.263.164 1.384 1.15 1.641 2.02.24.82.12 1.823 1.446 1.734.212-.013.466.315.389.503-.366.881.258 1.123.61 1.5.75.84 1.608 1.6 2.407 2.414.06.062-.02.236-.038.387l-.702.398-1.086-1.478c-.329-.442-.49-1.102-1.03-1.275-.686-.209-.54-.907-.925-1.266-.323-.302-.43-.936-.877-.964-.757-.041-.927-.555-1.356-.87-.468-.34-1.004-.608-1.508-.903l-.93.83-1.085-2.26c-1.333.288-1.242-1.105-2.142-1.251l-.745.184-.195.589-.759.313c.793.622 1.137.664 2.505.44l.063 1.077-.626.17c.022.33.03.684.032.831.42.295.71.543 1.054.734.353.195.757.334 1.218.534l-.733.755-.931-1.04c-.394.083-.678.143-.956.2l-.216.602-.97.215c-.59-.683-1.288-1.34-1.92-1.997-1.178.667-1.918.424-2.773.52l-.56.577-.005.497-1.71.997-.949-.88-.285.904-.708-.502c1.034-1.18.496-1.68.558-2.272-.474-.214-1.193-.204-1.178-.573.075-1.425-1.292-.865-2.051-1.118l.49.87-1.28.102c.14-.524.315-1.17.454-1.683-.192-.26-.33-.438-.436-.561l.5-.847-2.184-.732-.514 1.124-.78-.041-.092 1.13.74-.178-.445.895.694.642c-.19.363-.338.641-.538 1.021.772.277 1.485.606 2.209.901l-.602.976c.47.395.892.734 1.292 1.084l-.158.594-.846.6c-.041-.037-.082-.075-.123-.11-.096-.504.061-1.124-.734-.895a.653.653 0 01-.295.016 64.893 64.893 0 00-1.209-.992l.242-1.132c-.32-.03-.725.044-.962-.106-.225-.142-.448-.215-.837.02a70.106 70.106 0 00-4.706-3.282l.001-.026-.02.012-.008-.004.143-.168-.45-.65a83.04 83.04 0 00-.372.395 73.948 73.948 0 00-1.753-1.056l.109-.29c.013-.036.111-.075.243-.16l.278.774.494-.914-.905-.548.938-.901c-.099-.32-.168-.567-.25-.796l.544-.403c-.032-.876-1.414.652-1.142-.688l.587-.1c-.207-.384-.591-.242-.856-.335-.3-.107-.496-.427-.76-.676l-.288.494c.341.789.653 1.532.982 2.344l-1.05.294c-.016-.168-.032-.32-.052-.537l-.863 1.32c-.111-.06-.224-.116-.337-.176-.36-1.053-1.27-1.132-2.044-1.444.04.154.08.303.113.454a77.69 77.69 0 00-1.525-.732l1.012-.405-1.215-1.48-.174 1.711a71.925 71.925 0 00-7.426-2.918 71.954 71.954 0 00-4.602-1.344c-.444-.288-.876-.559-1.073-1.25-.547.031-.956.176-1.29.042-.344-.127-.616-.543-1.019-.92a95.49 95.49 0 00-.185-.659l-1.928-.958-.398.407c-1.046-1.55-2.493-1.516-3.751-2.17-.139-.07-.343.197-.517.245-.685.193-1.345.37-1.959-.282-.213-.224-.51-.204-.771-.276l.029-.047-.168-.446-.1.165.206.383.03-.05c.067.285.134.57.243 1.043-.391-.032-.734-.036-1.029-.052l-.491.953c-.312-.17-.543-.338-.785-.418-1.398-.482-2.786.48-4.214.048-.87-.28-1.788-1.431-2.7-.523-1.07-.717-2.19-.988-3.317-.864-.161-.418-.275-.83-.45-1.117-.168-.281-.4-.434-.512-.548l.072-1.575-.985.573c-.376-.118-.655-.22-1.04-.32-.807-1.271-1.857-2.094-3.028-2.703-1.636-.872-3.29-1.916-5.038-2.783a5.818 5.818 0 00-2.166-.584c-1.292-.09-2.645-1.005-4.007-1.006-.1.537-.418.872-.957.43-.804-.656-.88.426-1.134.574l-1.972-.455c-.382-.091-.776-.172-1.162-.372C59.637 2.324 56.11.686 52.474.044L50.5.397c-.49.417-.81.997-1.077.867-.934-.459-1.465.299-2.328.128-.792-.15-1.523.331-2.272.437-2.107.31-4.094.955-6.007 1.803-.414.195-1.166-.103-1.159.751-1.323-.285-1.898.823-2.84 1.246-.405.198-.847.336-1.186.47-.51.684-.151 2.164-1.664 1.656-.207-.069-.405.27-.608.42-.614.445-1.086 1.139-1.81 1.353-.732.226-.898.989-1.493 1.291-.537.278-.835.801-1.62.858-.647.042-1.27.708-1.437 1.36-.151.59-.513.852-.844 1.19-1.18 1.195-2.288 2.467-3.42 3.703-1.118 1.25-2.16 2.57-3.21 3.87-.33.403-.364 1.042-.638 1.49-.33.532-.786.971-1.186 1.454-.038.046-.08.096-.089.158a7.137 7.137 0 01-.684 2.204 9.175 9.175 0 01-1.196 1.875c-.543.677-1.022 1.402-1.563 2.08-.523.685-.89 1.425-.432 2.483-.589 1.24-1.495 2.259-1.815 3.68-.384 1.632-1.53 2.92-2.039 4.538-.313.947-.683 1.862-1.006 2.794-.3.942-.537 1.91-.63 2.927-.068.867-.658 1.556-.604 2.518.047.872-.48 1.605-.49 2.528-.01 1.006-.756 1.845-.997 2.822-.26.987-.268 2.049-.553 3.016-.453 1.574-.953 3.136-1.432 4.704-.23.723-.72 1.477-.496 2.21.283.897.124 1.636-.151 2.363-.305.774.115 1.6.057 2.371-.057.813-.29 1.6-.441 2.4-.154.739-.247 1.49-.36 2.238-.115.805-.48 1.625-.268 2.415.18.704-.382 1.367.208 2.066.097.116-.255.361-.362.558-.11.201-.285.423-.233.624.12.467.85.893.182 1.392-.486.367.314.745.163 1.174-.177.492-.083 1.035-.105 1.555a65.139 65.139 0 00-.033 7.29c.106 1.189.138 2.377.233 3.565.085 1.188.33 2.365.727 3.521.195.55.373 1.103.541 1.657.184.55.352 1.106.5 1.664.308 1.115.478 2.257.646 3.403.157 1.188.391 2.366.652 3.538l.933 3.476c.089.331-.015.856.302.957.85.278.662.91.945 1.379.255.42-.009 1.043.762 1.27.963.275-.144 1.068.106 1.553.258.507.398 1.062.59 1.595l.523 1.44c.164.504.554.942.142 1.598 1.237-.003.148.843.387 1.225.305.485.461 1.043.682 1.568.278.69.658 1.332.903 2.032.123.341.037.77.049 1.172.28.233.665.434.86.738.33.532.527 1.142.885 1.658.769 1.083.84 2.609 2.337 3.237.258.11.483.493.354.725-.317.576-.013.837.182 1.164l.852 1.434.912 1.398c.621.923 1.22 1.862 1.9 2.744.321.418 1.241.508 1.275.99.109 1.49 1.275 2.223 1.927 3.314.1.173.016.476.017.61.323.178.88.253.85.503-.108.97.48 1.434.995 1.924 1.036 1.007 1.88 2.191 2.86 3.255.994 1.048 2.055 2.041 3.443 2.657.427.18.683.602 1.02.912l.884.812 1.014.925c.344.303.747.543 1.033.901.23.288.209.894.516 1.03.373.164.585.427.86.69.758.75 1.617 1.383 2.468 2.022.86.626 1.697 1.287 2.565 1.902.785.576 1.665.854 2.576.539.396.487.656.847.953 1.16 1.102 1.116 2.838 1.077 4.106 1.861.889.505 1.777 1.017 2.704 1.45.483.224.921.482 1.583.417.674-.073 1.562.037 1.653 1.04 1.419-.08 2.451 1.059 3.673.269.59.428.948.758 1.362.966.652.323 1.337.58 2.017.837l1.894.682 2.055.73c.636.212 1.28.398 1.922.596.233 1.423 1.263.228 1.82.558.225.132.383.457.62.543.607.203 1.23.444 1.878.407.762-.047 1.49-.299 2.195.176.46.32 1.061.4 1.77.023.805-.429 1.676-.186 2.487-.237l.039 1.15c.711.148 1.378.417 2.048.28.64-.133 1.022.673 1.732.387.567-.238 1.203.35 1.926.549 1.13-1.222 2.523-.268 3.805-1.125l.17 1.131c.93-.223 1.9.535 2.85-.43.119-.12.368-.103.49.018.75.759 1.523.74 2.283.512.76-.22 1.506-.633 2.26-.683.137-.009.263-.24.388-.566l.001.003v-.003c.428-.197.86-.222 1.292-.246l.012.24c-.429.024-.857.05-1.287.048.147.356.287.647.435.667.953.1 1.908-.094 2.86-.183.954-.085 1.904-.083 2.89.351.104.047.26.054.329-.038.797-1.091 1.878-.519 2.804-.838l1.835-.71.382.813 2.101-.337 2.078-.423-.288-.425c-.046-.064-.115-.098-.147-.17-.019-.04.013-.127.04-.32.704-.144 1.581-.025 2.172-.53.683-.619 1.552.198 2.1-.515l1.361 1.4c.11-1.255 1.053-.27 1.467-.898.37-.56 1.221-.305 1.83-.864l-1.15-.441 1.972-.61c1.167 1.105 2.274.909 3.334.416l-.102-.95c.88-.103 1.763-.173 2.905-.365-.482.423-.737.66-1.004.871.64.104 1.225-.02 1.535-.488.349-.538.952.206 1.33-.238.366-.434 1.001-.481 1.241-.583 1.018.28 1.725.495 2.419.58.433.05.678-.257.797-.824.069-.327.569-.34.877-.489.663-.307 1.304-.661 2-1.028l-.736-.739.787-.418.585.676c.333-.036.675-.049.998-.113.315-.063.82-.033.875-.302.134-.644.415-.78.987-.711.431.047.305-1.156 1.17-.418.118.1.381-.204.694-.39l-.134-1.174c.89-.516 1.625-1.058 2.413-1.516.12-.07.38.083.595.16l-.028.46.184.082-.042-.5-.032-.014c.432.114.863.226 1.367.357.491-.327 1.06-.68 1.567-1.116.069-.057-.057-.372-.093-.567l-.792.577-.24-.297.72-.717c-.038-.247-.074-.495-.113-.755l1.392.41-.012-.615.761.653c.344-.255.69-.51 1.224-.907l-1.464.023c.523-.453.853-.721 1.111-.965.49.166.843.288 1.108.378l1.476-1.197-.406-.707c.153-.375.458-.69.418-1.124-.146-1.57.743-2.31 1.23-3.348.063-.136.273-.167.61-.289.479-.837 1.016-1.218 1.614-1.73l.224.962c-.487.234-.969.442-1.634.716l.006 1.271 2.508 1.413-.47-1.351c.287-.194.61-.447 1.107-.824l-.184 1.147c1.52-.61 3.01-1.232 2.324-3.395.33-.32.55-.576.753-.79l1.182.21 1.303-1.419.015.056.491.111-.05-.194-.473-.037.011.044c-.134-.262-.268-.524-.44-.855l-1.112.634.206-.981-1.347-1.211-.015-1.34-.679-.149.092-.46 1.675.278.317 1.027 1.451.154-.473 1.115 1.762.31c-.123-1.131 1.203-.56 2.026-.665.09-.557.335-1.001.192-1.492-.181-.621.07-1.01.413-1.1 1.366-.342 1.613-1.623 2.603-2.534.472.067 1.183.17 1.783.239.236-.415.606-.684.549-1.04-.199-1.216.83-1.66 1.174-2.524 1.53-.3 1.41-1.793 2.26-2.55l-.85-.827 1.555-.961.387.583c1.625-1.334 1.376-3.557 2.386-5.144l.805.273c.435-.345.9-.71 1.344-1.097.022-.02-.148-.185-.216-.264-.216.006-.41.011-.579.017l.147-2.597c.404-.632.866-1 .776-1.412-.137-.587-.37-1.08.377-1.298l1.402 1.07c.413-1.006.832-1.972 1.194-2.935.35-.968.691-1.92 1.033-2.87l-.281-.109c-.273.54-.546 1.081-.862 1.712l-1-1.38.76-2.145.844.084c.805-1.731 1.595-3.373 2.307-5.054l-.983-.796-.245.971-.821-.135c-.361-.537.29-1.277-1.043-1.767l-.756.159-.459-.446c-.439.474-.843.935-1.293 1.385-.617-.418-1.039-.735-1.996-.715-.854.017-1.041.449-1.618.53l.52 1.988-1.26-.043c.22.751.678 1.396-.356 1.51l.35.81-1.377.195-.778 2.166-.801-.942c.825-1.243.467-2.974 1.896-4.072l-.496-2.63c-1.003 1.254-1.84 2.213-1.835 3.455-.433.087-.721.147-1.057.215-.067-.417-.125-.815-.236-1.333.42-.395 1.955-.463.964-1.623-.206-.238.135-.583.224-.879l2.099.007c.366-.396.79-.922 1.255-1.49l1.21.313.862.896 1.415-1.408 2.391.824-.778-1.808c.778-.735 1.449-1.501 1.667-2.5.32-1.468.9-2.89 1.261-4.369.07-.273.084-.557.118-.79-.295-.24-.518-.424-.842-.69-.15.368-.27.669-.449 1.108-.837-.682-1.398-1.284-1.18-1.99.27-.83-.08-1.704.71-2.524.686-.723-.034-1.687-.804-2.435.297-.337.54-.652.813-.988l1.25-.014c-.37-1.454-1.02-2.84-.687-4.338.23-.032.474-.064.965-.13l-.406-.48.461-.346c-.313-.068-.61-.131-.996-.213-.005-.627-.01-1.273-.02-2.223l1.372 1.273c.083-.666.122-.972.16-1.263-.425-.087-.735-.152-1.021-.212l1.436-.831c-.037-.03.066.012.064.054-.107 1.632.01 3.245.208 4.88.14 1.63.31 3.286.27 4.957l1.37.094.146 1.025c.3.11.598.217.939.34-.622.91-.75 1.873-.808 2.857-.066.982-.11 1.978-.475 2.913l-1.243-.502c-.62 2.139-.6 2.132-.147 3.044a202.513 202.513 0 01-2.211 3.427c.414.715.947 1.623.446 2.484l-.04-.042-.484.132.137.147.433-.188-.04-.044c1.635.212 1.01-1.012 2.06-1.715l-.774 3.218c-.057.25-.338.554.36.74.778-.277 1.558-.563 2.442-.9l.098-.563-.97-.516c.122-.505.247-1.016.354-1.464l-.807-.832.261-1.32 1.194-.319c-.473-.93.953-1.48.36-2.429-.093-.14.175-.416.371-.572 1.843-1.47 1.855-1.51.827-3.446l-.512 1.188c-.11-.418-.23-.598-.188-.748.346-1.157.282-2.353.204-3.535-.091-1.185-.192-2.355-.157-3.521-.38-.111-.686-.201-.93-.274.014-.327.025-.607.039-.904.496-.018 1.178.07 1.297-.07.467-.55.808.122 1.322-.008l-.036-.914-.864-.149z" mask="url(#b)" style="fill: rgba(148, 132, 251, 0.08);"></path>
    </g>
    <path d="M213.95 184.56c.058-.098.11-.203.167-.305-.176.026-.344.056-.167.306M168.424 197.868l.016-.001-.017-.04.001.04M242.772 87.43c-.067.035-.132.069-.207.106l.23-.075-.023-.031zM251.06 107.106l.01.006c.03-.024.065-.045.094-.07l-.104.064zM149.907 195.171c.003.025.02.069.048.127.026-.01.05-.018.076-.026-.039-.03-.082-.066-.124-.1M204.598 48.115l.931-1.746c.696-.025.783.878 1.592.3.042.222.043.484.134.642.09.155.27.203.375.275.317-.346.479-.53.648-.697.044-.045.109-.035.201-.06.032.875.907.742 1.15 1.401.05.15.576-.15.943-.257-.233-1.502-1.075-2.11-2.462-1.86-.08-.512-.152-.986-.253-1.642l1.768-.229c-.084-.574-.554-.617-.587-.976-.05-.587-.148-.963-.783-.735.084.271.17.502.307.991-.611-.282-1.076-.458-1.64-.698.078.762.612 1.067-.285 2.2-.351-.213-.702-.435-1.067-.63-.025-.013-.164.17-.39.41l.943.572-.176.302c-.248-.067-.499-.136-1.083.164a.507.507 0 01-.122.33c-.094.283-.096.395-.097.505l-.162.099.064-.474c-.258.106-.633.157-.97.712.771-.181.302 1.389 1.021 1.101" fill="#FAF6F0"></path>
    <path d="M204.743 46.171c.03-.09.069-.198.12-.328-.248.417-.282.438-.316.46a.53.53 0 00.196-.132M258.916 95.79c-.038.583-.06.911-.08 1.245-.324.042-.563.073-.987.13l-.198-1.303c-.101.808-1.478 1.59-.267 2.407.48.322.39 1.162-.26 1.751-.056.052.094.19.147.287l1.098.138c-.196.294-.36.54-.608.908.273.284.612.666.973 1.079l1.846-.796c-.125-.188-.235-.33-.342-.48-.213.156-.388.282-.678.49-.304-.735-.647-1.393-.863-2.071-.212-.665.093-1.435-.72-2.005l.897-.115.33.942.937-.109 1.673-1.24c-.29-.317-.638-.66-.995-1.02-.299.23-.464.36-.52.402l-1.383-.64M222.535 43.806c-.41.342-.643.538-.887.743l-2.267-.497a31.64 31.64 0 001.767 1.765c.602.577 1.188 1.144 1.737 1.613 1.097.935 1.98 1.555 2.223 1.43l.4-.63c-.188-.187-.36-.366-.534-.52l.513-.804-1.094-.047-.29.714-2.374-2.172.776-.29c.017-.39.025-.763.03-1.305M218.54 42.563l-1.5-2.197-1.894.965.305.67.92-.714c-.048.418-.087.777-.125 1.12l2.293.156M218.556 51.307l1.446-.954c-.513.03-.728.043-.943.057-.133-.428.135-1.28-.73-1.013-.046.214-.071.354-.116.499-.01.032-.09.082-.138.125-.674-.01-.742-.903-1.8-.704l1.191.995 1.09.995M192.328 40.55l.678-1.037-.1-.664-2.004-.035.116.847 1.31.888M218.177 35.066l-.636-.214c-.224 1.19.744.877 1.239 1.54l.42-1.682c-.501-.06-.483-1.084-1.354-.3l.515.352-.184.304zM216.26 34.603l-1.364-.755-.391.846 1.708 1.153.046-1.244" fill="#FAF6F0"></path>
    <path d="M217.54 34.852l.306-.442-.457-1.485-1.108.128c.113 1.05.638 1.471 1.26 1.799M226.937 52.233c-.394-.434-.818-.842-1.242-1.281l-.564.55c.034.933.983.738 1.806.73M206.046 42.23l.526-.984c-.51-.301-.943-.59-1.42-.839l-.258 1.186 1.03-.229c.04.282.07.488.122.865M196.81 38.655c-.992.251-.897-1.705-2.296-1.11.92.397 1.075 1.796 2.296 1.11M194.987 39.397c.564.508 1.13.996 1.798 1.624-.082-1.694-1.008-1.587-1.798-1.624M200.688 42.41c-.295-.42-.614-.817-.936-1.218l-.247.348c.267.523.532 1.032.794 1.624l.389-.753M226.203 41.733c-.28-.012-.531.01-.743-.038-.214-.051-.394-.165-.595-.244l-.143.212c.396.33.766.69 1.222 1.1l.26-1.03M226.04 39.392c-.148-.138.444-1.348-.564-.301-.147.153-.408.166-.609.285-.043.026-.056.228-.104.436.455.023.93.044 1.501.071-.09-.21-.119-.393-.224-.49M193.95 42.545l.716.298c.17-1.044-.064-1.392-.691-1.13l-.024.832M252.341 92.222c.047.007.163-.022.17-.04l.504-1.287-.457-.023-.608 1.211c.254.093.315.128.391.14M259.831 137.156c.284-.953.446-1.496.606-2.038-.524.453-.923.933-.606 2.038M254.816 92.311l-.232-1.135-1.324.27 1.556.865M238.867 50.21c.064-.907.058-.914-1.074-1.319l1.074 1.318M233.466 44.309l-1.435-1.455c.125.66.335 1.222 1.435 1.455" fill="#FAF6F0"></path>
    <path d="M227.598 39.304l-.01.063.459-.088.031-.202-.47.166-.01.057c-.238-.225-.461-.475-.757-.621-.141-.07-.429.076-.65.124.25.21.47.466.766.61.14.068.42-.064.64-.109M186.084 197.627c.197-.415.325-.693.596-1.312-.51.135-.73.176-.99.23l.394 1.082M204.529 39.375l-.785-.193-.115.248.694.375zM193.443 31.495l-.825-.079-.073.264.766.273zM231.97 49.833l-.693.845 1.394-.298-.701-.547M213.66 39.854c.18-.24.362-.483.572-.76.252.172.498.357.763.51.28.166.586.292.87.453l.143-.22c-.506-.38-1.04-.72-1.56-1.08l-.22.282a18.804 18.804 0 00-.304-.086l-.497.962.232-.06zM230.148 43.075c-.257-.17-.531-.318-.797-.476l-.174.211c.221.208.45.408.66.627l.311-.362zM220.873 52.732c-.248-.16-.514-.3-.773-.449l-.234.273c.225.175.457.346.67.534l.337-.358zM222.009 38.936a8.977 8.977 0 00-.439-.347l-.26.386c.19.054.376.114.56.177l.139-.216zM226.02 179.245l.175.203.518-.46-.176-.202zM262.846 116.57l.266-.005.053-.603-.46-.012zM227.682 47.49l.76-.759-.117-.118-.758.761zM254.105 88.89l-.444.122.307.508.253-.081zM242.152 54.772l-.343-.468-.36.285.501.356zM227.241 179.597l.176.202.523-.466-.178-.201zM184.745 196.736l.056.263.659-.138-.058-.263zM243.584 56.394l.27-.221-.447-.51-.37.28zM214.18 45l.052-.022.094-.477-.177.078-.027.447.052-.023c-.45.648.021.584.157.78l-.053.024-.1.474.178-.08.033-.443-.053.023c.456-.644-.02-.583-.156-.78M199.837 45.259l.315-.827-.135-.025-.412.788zM219.47 48.122l-.15.208.37.34.286-.37zM194.322 33.533l-.537.03-.066.247.47.169zM208.147 51.711l.427.322.16-.215-.429-.323zM220.128 184.141l-.441-.123.312.437zM198.661 41.424l-.254-.121-.077.162.254.12zM195.348 41.289l.07-.165-.256-.106-.07.164zM196.115 41.608l.073-.163-.257-.107-.072.163zM229.021 43.822l.04-.196-.473.154-.458.082-.038.195.471-.156zM226.17 177.497l-.084.076.353.403.086-.076zM193.558 43.01l.342-.334-.009-.117-.347.262zM249.597 64.576l-.055-.105-.474.254.056.104zM256.882 140.766l.12-.338-.17-.058-.12.337zM258.9 93.265l-.528.09.018.116.53-.09zM223.337 51.04l.05-.189-.457.162-.003.01-.541-.265-.222.268.47.348.283-.31-.018.066zM219.104 41.992l.332-.421-.085-.065-.332.421zM200.422 36.12l-.091-.044-.227.486.09.044zM225.622 45.983l.24.221.122-.13-.24-.22zM192.125 30.49l-.098-.035-.167.51.096.034zM209.29 45.253l.1-.15-.24-.161-.1.148zM226.684 43.556l.082.076.365-.395-.083-.076zM193.822 37.556l-.27-.098-.064.168.269.097z" fill="#FAF6F0"></path>
    <g transform="translate(157.992 198.469)">
      <mask id="d" fill="#fff">
        <path d="M.467.254h.744v.49H.467z" transform="matrix(1, 0, 0, 1, 0, 0)"></path>
      </mask>
      <path fill="#FAF6F0" mask="url(#d)" d="M.663.7L1 .73l.015-.178-.337-.03z"></path>
    </g>
    <path fill="#FAF6F0" d="M255.217 94.014l-.018-.11-.53.09.018.111zM214.97 46.266l.329-.424-.08-.06-.329.424zM259.72 120.607l.358.023c.028-.345.04-.69.045-1.038l-.43-.038c.014-.237-.025-.49.088-.699.157-.29.45-.54.684-.81l-.462.14-.305-.817-.216.15-.187 1.99.342.074c.036.342.067.684.082 1.025M256.42 116.108l.178.014.03-.339-.178-.013zM245.111 88.413l-.082-.775-.904-.231-.331.658.692.653.625-.305zM246.318 91.386c-.759-.128-1.301-.22-1.903-.32.06.94.057.944 1.903.32M245.736 92.336l.123.598.264-.054-.124-.6zM248.293 98.537l.263.48.25-.056-.056-.515zM246.277 86.804c-.026-.102-.05-.202-.083-.3l-.172.048c.032.098.056.2.083.3l.172-.048zM245.698 70.926l.99-.61-1.667-.805.677 1.415M248.017 69.36l.237-.136-.391-.818-.413.238zM247.614 68.088l-.16-.301-.16.08.16.301zM240.576 156.756c-.331.534-.674 1.015-1.004 1.511 1.348.664 1.178-.57 2.035-.69-.03.402-.049.621-.065.842.222-.713 1.9-.254 1.625-1.431-.728.551-1.807-.14-2.591-.232M246.351 146.984l-.805-.378-.103.265.87.277zM245.544 148.87l-.48-.239-.049.1.482.24zM251.934 113.44c.646-.578-.29-1.024-.621-1.848-.21 1.302-.211 1.296.621 1.848M254.283 134.785l-.172-.05-.098.328.171.05zM249.43 126.094l.303-1.564c-.857.371-.96.9-.303 1.564M234.782 154.022l.15.097.172-.256-.15-.097zM184.713 193.499l.039.174.317-.066-.04-.175z"></path>
    <path d="M34.966 196.55c-3.96-.013-8.798.005-11.746-.14-6.106-.304-12.735-.737-16.016-1.188-1.352-.192 4.303-.538 8.667-.646 6.422-.15 14.29-.28 21.96-.399 11.793-.182 23.612-.57 35.45-1.148 2.959-.16 5.92-.318 8.882-.477l4.445-.265 2.206-.137c.686-.054 1.365-.159 2.004-.328.642-.172 1.22-.4 1.702-.734a7.268 7.268 0 012.403-1.04 8.263 8.263 0 012.567-.185c.425.036.85.102 1.26.194l1.053.214c2.82.52 5.731.64 8.656.566 2.936-.075 5.89-.353 8.868-.629l8.968-.703c5.978-.534 11.975-.752 17.968-1.043 2.998-.175 5.997-.206 8.996-.279l9-.193 9-.007c3-.005 6.002-.013 9 .058 24 .32 47.972 1.581 71.917 2.743 29.685 1.427 59.531 2.851 89.17 1.813 4.148-.168 10.37-.012 10.805.24.436.257-4.183.97-8.245 1.23-20.932 1.298-42.247 1.414-63.82.721-37.87-1.23-75.976-4.188-113.977-4.057l-4.113-.004-4.11.082-8.22.166c-2.742.021-5.476.213-8.213.317l-8.21.373c-5.465.4-10.922.784-16.389 1.237-5.466.482-11.108.982-16.795.044-.354-.058-.708-.115-1.06-.193l-1.01-.21a6.042 6.042 0 00-1.656-.11 5.154 5.154 0 00-1.561.356 4.279 4.279 0 00-.694.351l-.456.288a7.26 7.26 0 01-.579.307c-1.544.708-3.096.909-4.548.987l-4.12.231c-5.494.294-10.99.547-16.488.756-10.997.407-22.001.65-33.007.694.038.049.06.098.086.146" fill="#000"></path>
    <path d="M130.714 188.056s-5.974-8.249-3.543-20.584l2.64-10.451c.127-.502.83-.532 1-.042l2.131 8.206c.12.463.255.922.402 1.378a10.42 10.42 0 01.345 5.063l-2.975 16.43" fill="#DDD"></path>
    <path d="M130.282 188.043s-13.359.654-18.276-1.495l-8.644-3.884c-.416-.186-.335-.8.116-.87l9.125-1.442s6.992-3.646 13.986 1.804l-4.61-2.873a8.223 8.223 0 01-2.545-2.503c-1.01-1.557-1.775-2.792-2.097-4.153l-2.088-9.243c-.1-.445.44-.749.767-.431l6.633 6.43s2.108 1.804 4.426 4.188l2.712 3.489c1.457-2.116 3.394-3.54 4.967-4.433 2.102-1.194 4.008-2.703 5.573-4.547l4.351-5.127c.328-.318.868-.014.768.43l-2.088 9.244c-1.237 5.222-9.16 13.143-9.16 13.143" fill="#DDD"></path>
    <path d="M130.412 188.043s13.36.654 18.277-1.495l8.643-3.884c.417-.186.335-.8-.116-.87l-9.125-1.442s-3.821-.849-7.915-1.236M129.97 188.056s-5.973-8.249-3.543-20.584l2.64-10.451c.127-.502.831-.532 1-.042l2.132 8.206c.12.463.254.922.401 1.378a10.42 10.42 0 01.345 5.063l-2.975 16.43" style="fill: rgb(216, 210, 252);"></path>
    <path d="M129.539 188.043s-13.36.654-18.277-1.495l-8.644-3.884c-.416-.186-.334-.8.116-.87l9.125-1.442s6.992-3.646 13.987 1.804l-4.61-2.873a8.223 8.223 0 01-2.546-2.503c-1.009-1.557-1.775-2.792-2.097-4.153l-2.087-9.243c-.101-.445.439-.749.766-.431l6.633 6.43s2.108 1.804 4.426 4.188l2.712 3.489c1.457-2.116 3.394-3.54 4.967-4.433 2.102-1.194 4.008-2.703 5.573-4.547l4.351-5.127c.328-.318.868-.014.768.43l-2.087 9.244c-1.238 5.222-9.161 13.143-9.161 13.143" style="fill: rgb(216, 210, 252);"></path>
    <path d="M129.668 188.043s13.36.654 18.277-1.495l8.643-3.884c.417-.186.335-.8-.116-.87l-9.125-1.442s-3.821-.849-7.914-1.236" style="fill: rgb(216, 210, 252);"></path>
    <path d="M 128.838 165.772 L 130.888 157.65 C 130.99 157.283 131.175 157.06 131.316 156.936 C 131.448 156.804 131.636 156.679 131.919 156.615 C 132.187 156.553 132.497 156.587 132.729 156.691 C 132.972 156.81 133.065 156.885 133.234 157.085 C 133.399 157.26 133.529 157.614 133.613 158.003 L 133.887 159.057 L 134.189 160.224 L 135.397 164.89 C 135.69 166.062 135.966 167.144 136.335 168.23 C 136.698 169.286 136.551 169.873 136.048 169.064 C 135.464 168.084 134.902 167.009 134.497 165.742 C 133.835 163.731 133.218 161.706 132.645 159.668 L 132.533 159.277 L 132.478 159.102 C 132.438 158.99 132.414 158.881 132.368 158.787 C 132.306 158.694 132.147 158.7 132.078 158.799 C 132.019 158.903 132.023 159.027 131.996 159.128 C 131.966 159.278 131.987 159.223 131.881 159.675 L 131.643 160.705 L 131.167 162.764 L 130.207 166.881 C 129.842 168.266 129.655 169.603 129.506 170.961 C 129.468 171.648 129.384 172.331 129.377 173.018 C 129.385 173.704 129.345 174.392 129.39 175.077 C 129.543 178.741 130.226 182.477 131.676 185.877 C 132.323 187.423 132.843 188.595 132.55 188.869 C 132.266 189.14 131.203 188.209 130.152 186.049 C 129.407 184.513 128.843 182.843 128.438 181.16 C 127.822 178.625 127.544 176.019 127.613 173.411 C 127.679 170.835 128.077 168.151 128.773 165.755 L 128.838 165.772 Z M 116.842 166.584 L 116.348 164.396 C 116.291 164.148 116.305 163.889 116.388 163.649 C 116.445 163.466 116.503 163.35 116.671 163.164 C 116.831 162.994 117.071 162.859 117.299 162.813 C 117.546 162.767 117.674 162.777 117.861 162.823 C 118.038 162.868 118.274 162.944 118.52 163.182 L 119.246 163.885 L 120.131 164.743 L 123.147 167.673 C 123.637 168.149 124.114 168.648 124.565 169.148 C 125.012 169.644 124.939 170.112 124.449 169.834 C 123.86 169.499 123.241 169.159 122.637 168.692 C 121.672 167.944 120.735 167.159 119.83 166.339 L 118.883 165.485 L 118.648 165.272 L 118.529 165.166 L 118.488 165.134 L 118.338 165.02 C 118.251 164.966 118.171 164.854 118.078 164.957 C 117.998 165.058 118.102 165.194 118.121 165.277 L 118.155 165.36 C 118.169 165.404 118.162 165.352 118.21 165.544 L 118.427 166.378 L 118.854 168.05 L 119.682 171.404 C 119.808 171.934 119.925 172.47 120.032 173.008 C 120.132 173.521 120.252 173.948 120.443 174.429 C 120.814 175.368 121.346 176.316 121.88 177.259 C 122.371 178.116 122.586 178.889 122.26 179.125 C 121.942 179.355 121.302 178.905 120.51 177.82 C 119.948 177.042 119.394 176.195 118.944 175.242 C 118.771 174.878 118.623 174.502 118.501 174.117 C 118.438 173.929 118.384 173.704 118.341 173.527 L 118.22 172.993 L 117.738 170.862 L 116.776 166.599 L 116.842 166.584 Z" fill="#000"></path>
    <path d="M114.395 180.268c3.751-1.602 8.14-1.532 11.792.269.725.399 1.46.807 2.077 1.334.634.501.647.984.043.732l-1.093-.46c-.376-.144-.774-.27-1.163-.443-1.239-.482-2.563-.886-3.912-1.055-2.177-.277-4.423-.012-6.436.787-.25.096-.5.205-.727.317l-.131.065c-.062.028-.119.07-.186.072l-.294.052-.423.078-1.694.308-3.394.594-1.304.204-.618.086a.072.072 0 00-.028-.013c-.023-.003-.095-.034-.148.003-.052.046-.021.066.013.109l.068.062.021.017.113.059.25.127.997.513c1.01.516 1.706 1.087 1.57 1.465-.132.37-1.026.295-2.453-.267l-.89-.361-1.546-.676c-.41-.2-.569-.455-.673-.645a1.342 1.342 0 01-.1-.866c.068-.306.22-.523.346-.65.14-.143.374-.33.79-.397l1.933-.307 2.474-.391 2.473-.39 1.237-.194.618-.098.227-.036.145-.066.026.062zM145.896 166.792l.263-1.16c.008-.037.036-.114-.03-.107-.036.026-.061.068-.093.102l-2.235 2.633c-.771.913-1.595 1.904-2.526 2.76a21.68 21.68 0 01-2.98 2.337c-.481.32-1.036.63-1.504.885-.474.266-.935.548-1.378.846-.863.595-1.449.62-.853-.067.72-.813 1.631-1.576 2.664-2.27a24.412 24.412 0 004.385-4.014l2.862-3.513.93-1.134c.211-.242.425-.54.639-.742.21-.186.408-.283.553-.338.086-.033.139-.06.227-.074a.906.906 0 01.316.005c.233.04.473.185.612.352.141.176.16.27.22.453.05.167.102.401.038.733l-1.26 6.021-.563 2.663c-.076.428-.239.928-.377 1.403-.16.465-.353.906-.542 1.35-.819 1.731-1.894 3.278-3.04 4.743-1.152 1.461-2.391 2.835-3.654 4.155-1.146 1.2-2.214 1.941-2.527 1.688-.312-.248.342-1.303 1.743-2.995.997-1.207 2.016-2.45 2.959-3.715a33.581 33.581 0 001.985-2.93 14.985 14.985 0 001.472-3.082c.169-.49.296-1.102.43-1.691l.4-1.771.8-3.542.064.016z" fill="#000"></path>
    <path d="M150.514 186.454l6.232-2.802.873-.392c.038-.006.097-.052.043-.084l-1.957-.314a59.008 59.008 0 01-2.757-.508c-.894-.187-1.202-.627-.442-.65.913-.027 1.864-.067 2.903.012l1.224.101.62.058.69.073.954.122c.314.057.527.164.707.255.169.073.352.298.393.566.047.267-.055.537-.177.66-.106.115-.215.246-.413.381-.195.132-.47.241-.714.36l-1.143.543-1.851.891-3.707 1.78-.928.443c-.305.148-.68.275-1.019.41-.693.239-1.387.437-2.08.574-1.389.307-2.777.476-4.165.608-3.026.275-6.092.16-9.084-.017-1.36-.081-2.395-.363-2.411-.765-.019-.395.994-.64 2.81-.684 1.295-.025 2.624-.048 3.938-.072 1.974-.047 3.946-.145 5.89-.357 1.93-.234 3.883-.5 5.545-1.254l.026.062z" fill="#1A2225"></path>
    <path d="M156.266 188.062s3.229-4.459 1.915-11.125l-1.428-5.65c-.068-.271-.448-.287-.539-.022l-1.153 4.435c-.065.251-.137.499-.216.745a5.62 5.62 0 00-.187 2.737l1.608 8.88" style="fill: rgb(179, 168, 252);"></path>
    <path d="M156.5 188.054s7.22.354 9.877-.807l4.673-2.1a.248.248 0 00-.064-.47l-4.932-.779s-3.778-1.971-7.558.974l2.49-1.552a4.448 4.448 0 001.377-1.353c.545-.841.96-1.51 1.133-2.245l1.129-4.996c.053-.24-.238-.404-.415-.232l-3.586 3.475s-1.138.975-2.392 2.263l-1.466 1.887c-.787-1.145-1.833-1.914-2.684-2.397-1.135-.645-2.166-1.46-3.012-2.457l-2.352-2.77c-.177-.173-.468-.009-.415.231l1.129 4.996c.668 2.823 4.951 7.104 4.951 7.104" style="fill: rgb(179, 168, 252);"></path>
    <path d="M156.429 188.054s-7.22.354-9.878-.807l-4.672-2.1c-.224-.1-.18-.432.063-.47l4.932-.779s2.066-.459 4.278-.668" style="fill: rgb(179, 168, 252);"></path>
    <path d="M156.046 176.302l-.55-2.177c-.015-.034-.01-.08-.04-.102-.041.004-.028.063-.044.093l-.457 1.742a10.834 10.834 0 01-.653 1.895c-.284.605-.75.675-.673.145.08-.644.105-1.299.193-2a39.26 39.26 0 01.266-1.683l.038-.213.054-.264.144-.661.154-.682c.052-.23.102-.48.18-.637.124-.27.254-.443.356-.582.065-.074.08-.13.174-.192a.619.619 0 01.402-.063c.15.025.22.082.263.131l.174.167c.12.133.288.282.41.65l.48 1.734.32 1.114.582 2.018c.37 1.387.557 2.897.528 4.356-.047 2.17-.703 4.33-1.722 6.206-.457.86-1.09 1.368-1.43 1.147-.333-.21-.203-.88.214-1.985.296-.788.563-1.613.76-2.446.3-1.252.436-2.545.402-3.834a15.306 15.306 0 00-.59-3.862l.065-.015zM162.343 177l.003-.012c.004-.033.022-.066.013-.096-.033-.02-.052.033-.077.048l-1.048 1.01a9.288 9.288 0 01-.845.717c-.29.22-.665.044-.552-.263.137-.368.272-.759.507-1.105.183-.269.378-.536.586-.798l.317-.389c.116-.134.339-.37.514-.555l.493-.518c.166-.17.346-.38.5-.474.315-.212.542-.273.725-.33.085-.033.305.017.44.125.15.114.153.177.206.255.078.171.242.368.18.857l-.745 3.896c-.058.29-.129.578-.207.864a4.211 4.211 0 01-.39.983c-.335.604-.735 1.075-1.108 1.54-.34.418-.754.629-1.102.428-.34-.195-.37-.704-.039-1.343.231-.455.493-.882.676-1.28.07-.15.128-.296.17-.44.025-.078.036-.127.06-.22l.063-.288.26-1.15.26-1.15.06-.26.08-.052z" fill="#000"></path>
    <path d="M 164.567 184.007 C 162.911 183.304 160.901 183.325 159.265 184.132 C 158.934 184.315 158.579 184.463 158.251 184.66 C 157.921 184.835 157.54 184.63 157.726 184.328 C 157.838 184.146 157.956 183.954 158.092 183.763 C 158.232 183.582 158.404 183.418 158.596 183.26 C 159.238 182.77 159.978 182.424 160.766 182.247 C 161.905 182 163.084 182.003 164.221 182.257 C 164.411 182.305 164.603 182.349 164.792 182.411 C 164.888 182.441 164.984 182.472 165.079 182.508 L 165.225 182.564 C 165.268 182.58 165.247 182.568 165.263 182.572 C 165.23 182.562 165.428 182.586 165.544 182.598 L 165.937 182.642 L 166.723 182.734 L 167.509 182.831 L 168.611 182.985 C 169.178 183.08 169.819 183.148 170.311 183.285 C 170.715 183.467 170.807 183.698 170.876 183.843 C 170.943 183.982 170.977 184.135 170.975 184.29 C 170.975 184.369 170.961 184.447 170.933 184.521 C 170.904 184.571 170.829 184.629 170.779 184.681 C 170.555 184.896 170.319 185.1 170.076 185.293 L 169.293 185.589 C 168.848 185.759 168.425 185.869 168.12 185.879 C 167.81 185.889 167.623 185.799 167.536 185.619 C 167.451 185.443 167.469 185.245 167.498 185.087 C 167.533 184.926 167.574 184.807 167.67 184.724 L 167.757 184.656 C 167.73 184.636 167.712 184.641 167.709 184.638 L 167.699 184.639 L 167.698 184.64 L 167.659 184.634 L 167.496 184.608 L 164.767 184.176 L 164.54 184.068 L 164.567 184.008 L 164.567 184.007 Z M 146.61 174.896 L 146.503 174.425 C 146.454 174.202 146.47 173.969 146.55 173.755 C 146.602 173.605 146.663 173.505 146.72 173.425 C 146.745 173.383 146.774 173.344 146.806 173.308 C 146.876 173.238 146.957 173.181 147.045 173.137 C 147.134 173.092 147.229 173.061 147.328 173.047 C 147.385 173.041 147.422 173.045 147.47 173.044 C 147.666 173.077 147.942 173.023 148.398 173.468 L 149.756 175.068 L 150.594 176.056 C 151.249 176.829 152.011 177.504 152.857 178.062 L 153.607 178.537 C 153.887 178.717 154.157 178.914 154.407 179.127 C 154.907 179.561 154.826 180.024 154.354 179.809 C 153.772 179.553 153.18 179.418 152.531 179.141 C 151.494 178.661 150.555 177.992 149.764 177.167 L 149.267 176.63 L 149.024 176.366 L 148.964 176.301 L 148.942 176.279 L 148.897 176.239 C 148.805 176.153 148.71 176.07 148.611 175.991 L 148.513 175.918 C 148.498 175.89 148.431 175.895 148.425 175.982 C 148.465 176.132 148.519 176.249 148.553 176.34 C 148.587 176.419 148.614 176.476 148.637 176.516 L 148.94 177.693 L 149.247 178.915 L 149.411 179.41 L 149.636 179.916 C 150.446 181.502 151.569 183.143 152.743 184.662 C 153.282 185.352 153.583 185.988 153.318 186.289 C 153.06 186.584 152.359 186.316 151.491 185.444 C 150.866 184.807 150.284 184.129 149.751 183.413 C 148.946 182.32 148.163 181.203 147.668 179.758 C 147.538 179.362 147.482 179.059 147.408 178.74 L 147.192 177.78 L 146.527 174.832 L 146.611 174.896 L 146.61 174.896 Z" style="fill: rgb(0, 0, 0);"></path>
    <path d="M145.051 188.353l-4.123-1.851c-.276-.119-.55-.247-.673-.386a1.193 1.193 0 01-.257-.364c-.051-.12-.076-.165-.1-.307a.995.995 0 01.088-.534c.105-.158.203-.343.57-.537.174-.099.514-.127.797-.175l.878-.138.708-.105.377-.047c.253-.026.505-.048.753-.065.495-.032.754.32.378.521-.439.24-.956.51-1.431.672-.282.112-.48.2-.63.267l-.2.09c-.076.014-.054.194.076.22l.484.16.196.057.087.025c.038.012.022 0 .136.046l2.065.815c.347.14.697.281.977.356.31.083.639.16.985.209.681.114 1.398.172 2.115.22 1.564.102 3.18.283 4.778.382.724.044 1.286.254 1.326.653.04.39-.503.717-1.505.805-.713.061-1.448.07-2.176.055a36.507 36.507 0 01-3.305-.194c-1.103-.138-2.247-.277-3.402-.79l.028-.06z" fill="#000"></path>
    <path d="M268.467 191.646s4.16-6.276 2.466-15.662l-1.838-7.951c-.088-.382-.578-.405-.696-.032l-1.484 6.243c-.084.353-.177.702-.28 1.05a8.635 8.635 0 00-.24 3.851l2.072 12.501" style="fill: rgb(179, 168, 252);"></path>
    <path d="M268.768 191.637s9.302.455 12.727-1.04l6.02-2.706a.32.32 0 00-.08-.607l-6.356-1.003s-4.869-2.539-9.74 1.256l3.21-2a5.73 5.73 0 001.773-1.744c.703-1.084 1.236-1.944 1.46-2.892l1.454-6.437c.07-.31-.306-.52-.534-.3l-4.62 4.478s-1.467 1.256-3.08 2.916l-1.89 2.431c-1.015-1.475-2.364-2.466-3.459-3.087-1.463-.833-2.79-1.884-3.88-3.167l-4.258-3.863c-.228-.221-.603-.01-.534.3l2.68 6.729c.862 3.637 6.38 9.153 6.38 9.153" style="fill: rgb(179, 168, 252);"></path>
    <path d="M268.677 191.637s-9.304.455-12.728-1.04l-6.019-2.706a.32.32 0 01.08-.607l6.355-1.003s2.662-.59 5.512-.86" style="fill: rgb(179, 168, 252);"></path>
    <path d="M268.415 176.44l-.947-3.744c-.014-.031-.011-.12-.066-.086-.018.04-.025.086-.038.13l-.815 3.123c-.195.782-.47 1.663-.814 2.424-.35.774-.847.91-.713.244.15-.807.232-1.637.371-2.539a66.97 66.97 0 01.389-2.155c.075-.363.148-.728.224-1.094l.154-.686.21-.874c.05-.212.097-.443.169-.608.071-.158.148-.287.218-.388.169-.199.177-.365.537-.455a.802.802 0 01.47.05c.13.065.159.118.239.196.13.145.326.32.46.736l.95 3.424.764 2.723c.13.453.26.903.334 1.401.08.486.199.974.233 1.46.12.972.166 1.953.148 2.934-.067 2.761-.858 5.518-2.127 7.928-.57 1.102-1.32 1.781-1.663 1.566-.339-.205-.087-1.036.479-2.471a23.825 23.825 0 001.01-3.188c.393-1.636.57-3.324.526-5.007-.055-1.709-.272-3.3-.768-5.029l.066-.014zM276.703 176.669c.01-.043.021-.085.026-.128-.031-.052-.07.026-.098.044l-1.927 1.863c-.344.33-.707.647-1.074.94-.365.29-.771.145-.597-.222.21-.438.422-.902.742-1.331a23.373 23.373 0 011.642-1.96c.436-.423 1.67-1.9 2.14-1.846.106-.045.281-.072.504.03a.76.76 0 01.378.36c.094.203.29.534.104 1.212l-.927 4.757a23.7 23.7 0 01-.263 1.114c-.099.396-.272.86-.472 1.226-.407.759-.901 1.375-1.366 1.982-.424.546-.902.857-1.25.66-.344-.192-.31-.797.132-1.612.312-.578.656-1.135.903-1.67.093-.2.174-.4.233-.598.034-.104.052-.182.081-.302l.083-.371.335-1.483.6-2.656.071-.01zM279.26 187.494c-2.204-.936-4.861-.906-7.033.166-.438.241-.903.445-1.327.716-.426.244-.848.065-.582-.293.16-.215.327-.44.514-.667.193-.215.421-.407.672-.6.796-.554 1.759-1.016 2.784-1.223a10.35 10.35 0 014.373.062c.24.063.48.12.719.202.119.037.239.078.36.124.108.038.285.116.253.096l1.91.232 2.021.273 1.595.256c.323.064.705.096.957.195.25.104.367.238.456.348.092.128.131.167.206.377.071.198.062.487 0 .63a1.4 1.4 0 01-.245.361 1.546 1.546 0 01-.575.412l-1.747.695c-.743.27-1.39.305-1.576-.052-.09-.174-.03-.39.169-.624.1-.118.234-.24.403-.365.084-.062.177-.125.279-.188l.157-.094c.048-.029.138-.074.116-.07.01-.025.006-.039 0-.046-.01-.011-.018-.01-.021-.012-.145-.021.497.082-1.12-.174l-3.484-.55-.261-.126.027-.06z" fill="#000"></path>
    <path d="M256.47 176.861l-.358-1.588c-.072-.405.016-.625.08-.798.09-.172.107-.239.255-.388.162-.18.55-.302.674-.28.125.005.269.016.47.087.195.052.475.25.755.624l.835.983 1.058 1.246.863 1.013a13.835 13.835 0 002.845 2.488c.322.214.61.385.977.612.358.225.7.472 1.02.735.638.54.608 1.05.027.744-.713-.364-1.457-.589-2.276-.965a12.297 12.297 0 01-3.49-2.58l-1.165-1.283-.562-.62-.177-.168c-.112-.087-.175-.193-.268-.193-.07.03-.045.14-.014.202l.067.19c-.017-.226.384 1.417.644 2.453l.42 1.705c.066.292.155.49.225.741l.319.728c1.061 2.094 2.553 4.185 4.098 6.127.709.88 1.15 1.656.889 1.963-.253.299-1.09-.103-2.187-1.234a27.428 27.428 0 01-2.216-2.613 24.128 24.128 0 01-1.474-2.166c-.462-.75-.868-1.56-1.17-2.468-.16-.485-.236-.88-.33-1.292l-.278-1.235-.627-2.78.07.01z" fill="#000"></path>
    <path d="M254.113 191.805l-4.583-2.06-1.045-.469c-.375-.15-.565-.354-.667-.512-.112-.18-.157-.26-.197-.448-.052-.213.022-.56.121-.706.08-.122.164-.229.333-.363.16-.135.462-.252.869-.291l1.902-.298c.645-.1 1.299-.177 1.94-.233.634-.055.952.288.46.508-.592.265-1.204.55-1.906.747l-.775.214-.417.142-.315.108c-.115.015-.1.244.057.278.499.186.482.138 1.62.61l2.65 1.078c.445.185.893.37 1.273.479.411.115.844.22 1.295.287.891.157 1.821.238 2.75.305 2.03.14 4.12.328 6.182.418.935.04 1.658.244 1.704.642.045.39-.655.725-1.941.818-.916.063-1.86.073-2.796.053a47.575 47.575 0 01-4.235-.25c-1.41-.177-2.868-.357-4.306-.996l.027-.061zM253.044 49.15c-.635 1.298-1.28 2.62-1.935 3.964-.13.29-.288.553-.463.736-.18.185-.333.298-.525.398-.392.214-1.004.243-1.436.043a1.741 1.741 0 01-.543-.367c-.176-.153-.343-.408-.476-.698l-.668-1.454-1.737-3.762-.88-1.912-.442-.962-.19-.424a1.87 1.87 0 01-.117-.485c-.034-.335.027-.67.172-.98l1.65-3.475c.656-1.378 1.474-2.689 2.263-3.983.163-.265.587-.468.79-.433.192.034.413.389.348.646-.36 1.429-.63 2.94-1.249 4.298l-1.665 3.669c-.017.04-.026.085-.006.125l.03.055.128.267.558 1.173 1.113 2.348 1.112 2.35.277.587.13.276.017.025c.021.031.036.06.058.078.027.017.07-.009.074-.043.014-.043.007-.039.034-.104l1.13-2.342 2.203-4.528-.869-1.767c-1.042-2.13-1.666-4.5-2.342-6.753-.018-.091.01-.137-.02-.24a.589.589 0 00-.204-.297c-.21-.188-.679-.247-1.034.084.15-.663 1.034-1.22 1.893-.855.21.089.407.23.567.408l.107.137.05.07.024.025.092.104c.12.14.229.288.32.45.861 1.535 1.608 3.163 2.369 4.768l.832 1.768c.145.305.291.618.443.943l.202.43a1.838 1.838 0 01-.06 1.546l-2.125 4.092" fill="#000"></path>
    <path d="M225.312 69.53l-2.945 7.11a.524.524 0 00.019.442l3.657 7.045a.526.526 0 00.95-.034l3.123-7.242a.526.526 0 00-.022-.463l-3.837-6.912a.526.526 0 00-.945.053" style="fill: rgb(179, 168, 252);"></path>
    <path d="M216.99 52.507c-.957-1.114-1.965-2.363-2.879-3.678-.203-.294-.297-.663-.395-1.018-.019-.074.118-.266.232-.358.111-.087.358-.189.424-.161.363.157.801.266 1.009.533 1.31 1.662 2.69 3.255 4.085 4.829.354.4.451 1.042.606 1.623.04.152-.204.492-.317.748-.237 0-.555.083-.697-.023-.334-.249-.592-.582-.855-.901a39.041 39.041 0 01-1.214-1.594" fill="#5F44FF"></path>
    <path d="M218.478 51.682c-1.149.741-2.41 1.536-3.71 2.267-.29.161-.643.209-.985.264-.07.01-.246-.145-.326-.267-.077-.119-.16-.371-.13-.433.17-.338.3-.755.57-.928l4.995-3.275c.424-.273 1.049-.251 1.62-.289.15-.01.44.292.666.448-.031.23.008.552-.11.668-.278.271-.622.456-.955.651-.5.292-1.014.563-1.635.894" fill="#5F44FF"></path>
    <path d="M205.953 66.178a2.96 2.96 0 01.091 4.011 2.973 2.973 0 01-2.022 1.002 2.993 2.993 0 01-2.172-.72c-.534-.461-.777-1.19-.756-1.829.005-.138.216-.303.362-.325.14-.023.41.036.456.104.273.413.71.564.936.755.371.332.898.417 1.33.259.435-.146.751-.545.823-.963a1.211 1.211 0 00-.4-1.13 1.179 1.179 0 00-1.138-.215c-.187.065-.407.095-.662.2-.253.102-.53.286-.725.573-.098.143-.515.224-.77.421-.184-.25-.451-.589-.39-.935.141-.81.741-1.512 1.473-1.877a2.97 2.97 0 013.564.669" fill="#000"></path>
    <path d="M254.784 88.112a2.1 2.1 0 104.193-.208 2.1 2.1 0 00-4.193.208" fill="#F7C845"></path>
    <path d="M259.212 85.797a3.245 3.245 0 01.107 4.4 3.266 3.266 0 01-2.22 1.106 3.29 3.29 0 01-2.393-.791c-.59-.508-.829-1.33-.776-2.024.012-.15.296-.33.49-.355.187-.026.546.03.605.092.347.4.86.45 1.047.593.321.264.75.309 1.089.168a.986.986 0 00.608-.77.913.913 0 00-.325-.83.868.868 0 00-.822-.142c-.13.047-.314.014-.573.058a1.4 1.4 0 00-.81.427c-.121.128-.678.198-1.018.41-.243-.259-.606-.638-.545-1.025.14-.9.81-1.674 1.62-2.074a3.264 3.264 0 013.916.757M59.106 163.704a2.098 2.098 0 104.193-.21 2.1 2.1 0 00-4.193.21" style="fill: rgb(216, 210, 252);"></path>
    <path d="M63.534 161.389a3.245 3.245 0 01.108 4.4 3.283 3.283 0 01-4.613.315c-.59-.508-.829-1.33-.776-2.024.011-.15.296-.33.49-.356.187-.025.546.03.605.093.347.399.86.45 1.047.593.32.263.75.309 1.089.168a.985.985 0 00.607-.77.911.911 0 00-.324-.83.867.867 0 00-.822-.142c-.13.047-.315.013-.574.057-.256.04-.57.167-.81.428-.12.127-.677.198-1.016.41-.244-.26-.607-.639-.546-1.025.139-.9.81-1.674 1.62-2.074a3.262 3.262 0 013.915.757" style="fill: rgb(216, 210, 252);"></path>
    <path d="M65.812 136.34l3.178-7.008a.53.53 0 00-.003-.444l-3.423-7.16a.525.525 0 00-.949 0l-3.362 7.136a.523.523 0 00.007.463l3.606 7.036c.2.392.765.378.946-.022" fill="#5F44FF"></path>
    <path d="M81.13 142.955a2.957 2.957 0 01-.76-1.968 2.97 2.97 0 012.857-2.978 2.99 2.99 0 012.147.792c.52.478.737 1.214.695 1.853-.01.137-.226.295-.372.313-.14.018-.409-.05-.453-.12-.258-.421-.691-.587-.91-.786a1.339 1.339 0 00-1.322-.302c-.438.13-.768.52-.854.935-.092.423.06.867.364 1.142.305.276.744.374 1.13.253.188-.059.41-.082.667-.178.258-.093.54-.269.744-.549.103-.14.523-.207.783-.395.177.256.432.604.36.948-.168.805-.791 1.486-1.535 1.828a2.972 2.972 0 01-3.54-.788" fill="#020202"></path>
    <path d="M194.285 117.79l6.963-.1 1.781-.025c.539-.022 1.016-.057 1.52-.16a7.771 7.771 0 002.793-1.157c1.705-1.127 2.949-2.968 3.32-4.999.033-.256.082-.512.107-.765l.033-.765-.06-1.852-.113-3.707c-.066-2.2.087-4.415.216-6.595.029-.448.382-.986.626-1.074.235-.081.682.231.76.604.423 2.076.993 4.203 1.09 6.356l.23 5.05.056 1.267c-.026.483-.006.982-.091 1.452-.097.958-.385 1.888-.742 2.782-.372.892-.886 1.716-1.472 2.485-.618.742-1.31 1.428-2.1 1.993-1.575 1.124-3.47 1.849-5.419 1.974-.236.015-.503.038-.714.042l-.631.013-1.262.024-2.524.047-5.048.084-10.098.127c-3.424.033-6.9-.538-10.254-.984-.88-.118-1.396-.804-2.078-1.228 1.012-.3 1.977-.796 3.05-.859 2.535-.148 5.12-.115 7.684-.112l12.377.081M129.802 91.553c-3.21.046-6.707.122-10.203.128-.777.001-1.558-.218-2.327-.41-.157-.043-.344-.412-.372-.658-.026-.236.088-.675.22-.741.736-.363 1.49-.87 2.25-.904 4.745-.222 9.494-.411 14.244-.425 1.207-.003 2.432.598 3.613 1.073.31.124.49.815.73 1.245-.359.292-.701.78-1.079.832-.894.127-1.807.072-2.711.047-1.358-.04-2.716-.114-4.365-.187" fill="#000"></path>
    <path d="M110.412 60.586s3.343.406 2.127 3.647c-1.215 3.243-2.938 12.26-2.634 19.86.305 7.598 1.422 22.824 4.916 25.343 0 0-8.582-1.237-9.358-15.618-.775-14.381-.38-24.438-.38-24.438s1.425-7.77 5.329-8.794M138.54 143.656c-1.317-23.396-4.08-41.186.917-101.694l6.648-3.887s-2.581 15.316.045 24.942c2.625 9.626-3.743 23.475-1.167 29.96 2.576 6.484 3.768 13.71 2.301 22.829-1.468 9.118-6.282 22.949-1.827 26.597 4.456 3.647-5.915 19.07-5.915 19.07" fill="#FFF"></path>
    <path d="M121.269 91.629l14.035.11 1.53 17.429c-5.595 1.266-14.129.523-14.129.523s-1.759-6.3-1.436-18.062M165.786 25.009s6.124 4.083 7.052 24.736c.928 20.652 2.4 51.28 2.4 51.28s-8.29-.91-7.885-7.352c.406-6.44-.017-43.395-2.416-51.71-3.718-12.887.849-16.954.849-16.954" style="fill: rgb(230, 227, 253);"></path>
    <path d="M107.838 64.23c-1.062 2.173-1.364 4.929-1.568 7.698-.182 2.785-.178 5.655-.11 8.565.15 5.818.598 11.842 1.255 17.955l.007.073.001.068c.05 2.371 1.011 4.817 2.787 6.623 1.755 1.818 4.278 2.934 6.861 2.949 3.967.014 8.03.221 11.982.418.815.042 1.776.411 1.922.658.137.235-.455.675-1.14.74-3.794.363-7.685.87-11.601.905-.393 0-.759.012-1.172.003-.426-.023-.854-.02-1.278-.07a12.964 12.964 0 01-2.508-.532 12.561 12.561 0 01-4.438-2.532c-2.59-2.258-4.194-5.643-4.262-9.11l.009.127a233.065 233.065 0 01-1.17-13.774c-.238-4.608-.371-9.228-.035-13.923l.158-1.766.256-1.784c.2-1.198.493-2.415.957-3.616.465-1.198 1.12-2.398 2.085-3.432.962-1.033 2.267-1.804 3.61-2.192.336-.099.675-.163 1.012-.235.334-.04.674-.096 1.007-.117.652-.04 1.34-.04 2.026.049a9.556 9.556 0 013.862 1.377c2.349 1.446 3.978 3.982 4.362 6.717.046.23.046.466.067.698.017.238.03.473.03.653l.01 1.17-.017 2.346c-.024 1.564-.075 3.13-.141 4.692-.132 3.123-.324 6.232-.487 9.285-.084 1.602-.752 2.548-1.152 3.792-.337-1.84-.868-3.591-.969-5.54-.24-4.611-.302-9.316-.393-13.981l-.025-1.314-.013-.65-.036-.528c-.08-.701-.268-1.39-.569-2.036-.591-1.3-1.673-2.402-3.016-3.05a6.466 6.466 0 00-2.18-.613 7.367 7.367 0 00-2.385.164c-1.541.347-2.774 1.408-3.6 3.07M174.406 50.864c.567 11.97 1.165 25.037 1.243 38.125.013 2.908-.201 5.833-.424 8.704-.047.59-.422 1.283-.67 1.386-.236.096-.672-.338-.734-.833-.338-2.748-.83-5.56-.882-8.387-.148-8.842-.49-17.682-.9-26.526l-.64-13.271-.321-6.686a33.063 33.063 0 00-.68-6.299c-.44-2.093-.94-4.18-1.692-6.18-.76-1.988-1.805-3.886-3.27-5.44a3.658 3.658 0 01-.457-.648c-.14-.2-.257-.408-.365-.625-.215-.431-.403-.89-.69-1.336.688.253 1.364.5 2.049.75.635.347 1.306.722 1.88 1.249.618.674 1.297 1.324 1.795 2.095.258.379.55.743.775 1.139l.67 1.197c.817 1.624 1.478 3.319 1.918 5.042.702 2.585 1.067 5.204 1.147 8.012.003 1.388.074 2.688.109 4.106l.139 4.426M175.23 140.898c.217 8.918.519 18.63.567 28.374-.004 2.173-.214 4.343-.5 6.521-.062.451-.456.954-.706 1.014-.239.057-.662-.296-.71-.663-.256-2.041-.773-4.131-.798-6.231-.27-13.157-.83-26.347-1.062-39.55-.056-3.358.482-6.774.97-10.07.129-.868.84-1.359 1.281-1.993.268.994.737 1.918.797 2.967.125 2.465.111 4.998.123 7.506l.038 12.125M135.406 103.928c-.071-11.366.15-23.243.73-35.358.286-6.058.648-12.175 1.112-18.319.237-3.072.483-6.15.774-9.233l.223-2.313.119-1.16.03-.29.016-.147.008-.074.004-.036.002-.019c-.019.332-.005.081-.008.15l.03-.635c.03-1.694.388-3.378.939-4.978.464-1.44 1.229-2.763 2.07-4.006a17.24 17.24 0 013.089-3.261c1.187-.905 2.443-1.728 3.822-2.278.664-.328 1.389-.5 2.08-.745l1.072-.242a7.064 7.064 0 011.076-.185c1.197-.197 2.613.183 2.808.402.184.226-.628.707-1.53.818-2.516.471-4.897 1.56-6.837 3.154a16.398 16.398 0 00-4.521 5.86 14.184 14.184 0 00-1.32 5.598l-.017.362-.017.32-.02.192-.076.776-.146 1.56-.275 3.123a651.153 651.153 0 00-.914 12.519 724.043 724.043 0 00-1.12 25.087c-.227 8.367-.326 16.739-.228 25.107.002 2.094.065 4.173.1 6.26l.06 3.126c.04 1.044.115 2.092.171 3.138l.72 12.558c.482 8.515.368 17.177.362 25.54-.002 2.193-.62 3.502-.954 5.215-.432-2.511-1.056-4.898-1.259-7.566-.482-6.31-.789-12.751-1.124-19.137-.44-9.591-1.191-19.162-1.05-30.883" fill="#000"></path>
    <path d="M188.73 99.557c.46-.026.94-.057 1.45-.102l.133-.007c.035-.005.062-.022.078-.055.009-.014.009-.025.008-.043l-.003-.723-.02-3.141c-.012-2.433.845-4.938 2.468-6.87 1.602-1.944 3.966-3.285 6.506-3.67 2.53-.408 5.229.157 7.395 1.572 2.058 1.321 3.446 3.529 3.956 5.784.117.47-.137 1.097-.353 1.216-.214.114-.72-.098-.865-.408-.872-1.772-2.36-2.999-3.777-4.01a7.843 7.843 0 00-5.396-1.442 7.828 7.828 0 00-4.932 2.454 7.593 7.593 0 00-2.054 5.039l-.013.354.005.414.01.827.017 1.654.008.828.001.102-.006.192c-.003.139-.026.277-.049.415a3.081 3.081 0 01-.271.792c-.492 1.005-1.585 1.684-2.713 1.68l.145-.008c-4.066.337-8.028.27-12.048-.158-3.316-.383-6.58-1.656-9.44-3.214-.744-.444-.928-1.269-1.322-1.897.996.085 1.951.006 2.89.233 2.195.608 4.48 1.16 6.804 1.518 3.49.51 7.066.795 11.388.674" fill="#000"></path>
    <path d="M149.24 130.758c.413-3.356.931-6.685 1.468-10.011l.844-5.294.505-3.525c.078-.586.162-1.175.22-1.756.027-.29.073-.587.085-.87l.025-.838c-.034-2.252-.73-4.51-1.468-6.75-.741-2.246-1.553-4.515-2.076-6.897-.52-2.376-.734-4.876-.391-7.338.454-2.948.987-5.78 1.35-8.679.358-2.882.608-5.775.539-8.655a35.311 35.311 0 00-1.164-8.513c-.752-2.908-1.13-5.878-1.264-8.844-.084-1.79-.032-3.599.09-5.358.12-1.687.398-2.764.697-3.41.457-.93.65.082.596 2.426a186.79 186.79 0 00-.056 4.645c.013 3.536.387 7.065 1.287 10.457.935 3.514 1.284 7.156 1.245 10.768-.02 1.993-.146 4.067-.425 5.977-.43 3.048-1.007 6.09-1.503 9.093-.248 1.458-.23 2.948-.12 4.428.149 1.48.455 2.95.823 4.41.565 2.172 1.339 4.312 2.007 6.52.662 2.192 1.219 4.554.965 6.957-.498 4.085-1.237 8.064-1.848 12.086-.623 4.013-1.209 8.03-1.59 12.063-.149 1.609-.271 3.17-.36 4.668-.056.749-.046 1.48-.087 2.198l.025 1.057c.003.35.006.697.069 1.03.17 1.239-.132 1.322-.568-.183-.453-2.109-.421-4.302-.364-6.467.071-1.78.26-3.593.463-5.377l-.02-.018zM159.054 121.798c.504-2.417 1.09-4.795 1.617-7.181.286-1.264.544-2.536.764-3.808.56-3.393.888-6.816.78-10.225-.016-.426-.02-.852-.045-1.277l-.115-1.272a55.372 55.372 0 00-.278-2.565l-.597-5.17c-.922-8.493-1.533-17.104-.79-25.7.064-.647.134-1.296.221-1.942l.315-1.916c.22-1.21.537-1.965.838-2.41.444-.645.685.13.5 1.832-.096 1.081-.255 2.254-.381 3.368-.62 5.13-.6 10.318-.214 15.468.109 1.423.258 2.9.324 4.288.193 4.436.795 8.875 1.244 13.31a45.98 45.98 0 01-.05 10.078c-.655 5.96-2.385 11.676-3.383 17.47a87.516 87.516 0 00-.887 6.473c-.107.915-.419.889-.514-.191-.17-1.528-.085-3.133.048-4.715.135-1.298.375-2.611.622-3.9l-.019-.015z" fill="#DDD"></path>
    <path d="M77.812 44.151c-6.825 0-12.376 6.02-12.376 13.418 0 7.112 5.786 12.897 12.896 12.897 7.274 0 13.419-5.906 13.419-12.897 0-7.022-6.644-13.418-13.94-13.418" style="fill: rgb(227 222 255);"></path>
  </g>
</svg>